**ABCDEFGHIJKLMNOPQRSTUVWXYZabcdefghijklmnopqrstuvwxyz**************************
**PARASOLID !"#$%&'()*+,-./:;<=>?@[\]^_`{|}~0123456789**************************
**PART1;
MC=AMD64;
MC_MODEL=Intel64 Family 6 Model 158 Stepping 9, GenuineIntel;
MC_ID=unknown;
OS=Windows_NT;
OS_RELEASE=unknown;
FRU=Parasolid Version 30.0, build 298, 12-15-2017;
APPL=SOLIDWORKS 2018-2018134;
SITE=;
USER=unknown;
FORMAT=text;
GUISE=transmit;
KEY=5972K216_BALL BEARING_BIG;
FILE=5972K216_BALL BEARING_BIG.x_t;
DATE=Fri Oct 19 13:51:05 2018;
**PART2;
SCH=SCH_3000298_30000;
USFLD_SIZE=0;
**PART3;
**END_OF_HEADER*****************************************************************
T51 : TRANSMIT FILE created by modeller version 300029823 SCH_3000298_30000_1300
6205 0 10 19 CCCCCCCI4 mesh1006 0 I8 polyline1008 0 CCCCCCCCCCZ1 29 2 3 0 0 0 0
 0 0 0 1e3 1e-8 0 0 0 1 0 1 4 81 255 2 2 29 5 1 0 0 0 0 0 0 70 11 CI9 list_type0
 0 1 uI10 notransmit0 0 1 lCCCDCCDI12 finger_index0 0 1 dI12 finger_block1012 0
 CZ3 0 4 T1 0 0 1 20 1 6 6 11 255 4 27 0 1 7 8 1 9 0 0 0 12 33 CCCCCCI4 mesh1006
 0 I8 polyline1008 0 CCCCCCCDI5 owner1040 0 CCCCCCI13 boundary_mesh1006 0 I17 bo
undary_polyline1008 0 CCCA16 index_map_offset0 0 1 dA9 index_map82 0 A17 node_id
_index_map82 0 A20 schema_embedding_map82 0 A5 child12 0 A14 lowest_node_id0 0 1
 dZ7 74 10 11 0 0 0 0 0 0 1e3 1e-8 4 12 0 1 0 1 1 13 14 0 0 0 0 15 0 0 0 0 0 0 0
 0 100 255 8 28 4 0 0 1 0 0 0 1 0 0 0 1 0 0 0 1 0 ?11 9 25 0 1 12 16 1 17 4 0 0
 12 12 74 18 19 0 0 0 0 0 0 1e3 1e-8 9 20 7 1 0 1 1 21 22 0 0 0 0 23 0 0 0 0 0 0
 0 0 100 16 26 9 0 0 1 0 0 0 1 0 0 0 1 0 0 0 1 0 ?11 17 23 0 1 20 24 1 25 9 0 0
 12 20 74 26 27 0 0 0 0 0 0 1e3 1e-8 17 28 12 1 0 1 1 29 30 0 0 0 0 31 0 0 0 0 0
 0 0 0 100 24 24 17 0 0 1 0 0 0 1 0 0 0 1 0 0 0 1 0 ?11 25 21 0 1 28 32 1 33 17
 0 0 12 28 74 34 35 0 0 0 0 0 0 1e3 1e-8 25 36 20 1 0 1 1 37 38 0 0 0 0 39 0 0 0
 0 0 0 0 0 100 32 22 25 0 0 1 0 0 0 1 0 0 0 1 0 0 0 1 0 ?11 33 19 0 1 36 40 1 41
 25 0 0 12 36 74 42 43 0 0 0 0 0 0 1e3 1e-8 33 44 28 1 0 1 1 45 46 0 0 0 0 47 0
 0 0 0 0 0 0 0 100 40 20 33 0 0 1 0 0 0 1 0 0 0 1 0 0 0 1 0 ?11 41 17 0 1 44 48
 1 49 33 0 0 12 44 74 50 51 0 0 0 0 0 0 1e3 1e-8 41 52 36 1 0 1 1 53 54 0 0 0 0
 55 0 0 0 0 0 0 0 0 100 48 18 41 0 0 1 0 0 0 1 0 0 0 1 0 0 0 1 0 ?11 49 15 0 1 5
2 56 1 57 41 0 0 12 52 74 58 59 0 0 0 0 0 0 1e3 1e-8 49 60 44 1 0 1 1 61 62 0 0
 0 0 63 0 0 0 0 0 0 0 0 100 56 16 49 0 0 1 0 0 0 1 0 0 0 1 0 0 0 1 0 ?11 57 13 0
 1 60 64 1 65 49 0 0 12 60 74 66 67 0 0 0 0 0 0 1e3 1e-8 57 68 52 1 0 1 1 69 70
 0 0 0 0 71 0 0 0 0 0 0 0 0 100 64 14 57 0 0 1 0 0 0 1 0 0 0 1 0 0 0 1 0 ?11 65
 11 0 1 68 72 1 73 57 0 0 12 68 74 74 75 0 0 0 0 0 0 1e3 1e-8 65 76 60 1 0 1 1 7
7 78 0 0 0 0 79 0 0 0 0 0 0 0 0 100 72 12 65 0 0 1 0 0 0 1 0 0 0 1 0 0 0 1 0 ?11
 73 9 0 1 76 80 1 81 65 0 0 12 76 74 82 83 0 0 0 0 0 0 1e3 1e-8 73 84 68 1 0 1 1
 85 86 0 0 0 0 87 0 0 0 0 0 0 0 0 100 80 10 73 0 0 1 0 0 0 1 0 0 0 1 0 0 0 1 0 ?
11 81 7 0 1 84 88 1 89 73 0 0 12 84 74 90 91 0 0 0 0 0 0 1e3 1e-8 81 92 76 1 0 1
 1 93 94 0 0 0 0 95 0 0 0 0 0 0 0 0 100 88 8 81 0 0 1 0 0 0 1 0 0 0 1 0 0 0 1 0
 ?11 89 5 0 1 92 96 1 97 81 0 0 12 92 67 98 99 0 0 0 0 0 0 1e3 1e-8 89 100 84 1
 0 1 1 101 102 0 0 0 0 103 0 0 0 0 0 0 0 0 100 96 6 89 0 0 1 0 0 0 1 0 0 0 1 0 0
 0 1 0 ?11 97 3 0 1 100 104 1 105 89 0 0 12 100 238 106 107 0 0 0 0 0 0 1e3 1e-8
 97 108 92 1 0 1 1 109 110 111 0 0 0 112 113 0 0 0 0 0 0 0 100 104 4 97 0 0 1 0
 0 0 1 0 0 0 1 0 0 0 1 0 ?11 105 1 0 1 108 114 1 0 97 0 0 12 108 239 115 116 0 0
 0 0 0 0 1e3 1e-8 105 117 100 1 0 1 1 118 119 120 0 0 0 121 122 0 0 0 0 0 0 0 10
0 114 2 105 0 0 1 0 0 0 1 0 0 0 1 0 0 0 1 0 ?81 1 115 239 123 108 124 0 0 0 0 70
 116 0 4 T108 0 0 4 20 1 125 125 13 255 118 53 0 108 0 126 0 0 127 0 52 255 119
 106 0 126 128 0 0 -0 0 .00315 0 0 -1 .0185 .707106781186547 .707106781186548 -1
 0 0 31 255 120 114 0 122 129 0 0 +0 0 .00315 0 0 1 1 0 0 .0185 19 8 CCCCCCCA5 o
wner12 0 Z121 57 0 108 127 0 130 V0 16 255 122 91 0 ?131 0 132 120 0 0 108 17 25
5 131 0 133 131 131 0 134 122 0 0 +16 132 86 0 ?135 122 136 129 0 0 108 17 135 0
 137 135 135 0 138 132 0 0 +16 136 81 0 ?139 132 140 141 0 0 108 31 129 113 0 13
2 141 120 0 +0 0 -.00315 0 0 1 1 0 0 .0185 31 141 112 0 136 142 129 0 +0 0 -.003
5 0 0 1 1 0 0 .01815 31 142 111 0 140 143 141 0 +0 0 -.0035 0 0 1 1 0 0 .0168186
813186813 16 140 76 0 ?144 136 145 142 0 0 108 31 143 110 0 145 146 142 0 +0 0 -
.001555555555555555 0 0 1 1 0 0 .0168186813186813 16 145 71 0 ?147 140 148 143 0
 0 108 31 146 109 0 148 149 143 0 +0 0 .001555555555555555 0 0 1 1 0 0 .01681868
13186813 16 148 66 0 ?150 145 151 146 0 0 108 31 149 108 0 151 152 146 0 +0 0 .0
035 0 0 1 1 0 0 .0168186813186813 16 151 61 0 ?153 148 154 149 0 0 108 31 152 10
7 0 154 0 149 0 +0 0 .0035 0 0 1 1 0 0 .01815 16 154 59 0 ?155 151 0 152 0 0 108
 17 155 0 156 155 155 0 157 154 0 0 +15 255 156 63 0 155 158 0 17 157 0 159 157
 157 0 155 154 0 0 -15 159 154 0 157 126 133 14 255 126 97 160 ?161 0 159 118 11
9 -0 0 161 0 130 15 133 96 0 131 126 0 81 1 160 231 162 126 163 0 0 164 165 14 1
61 94 164 ?166 126 167 118 128 -0 0 166 126 130 13 130 56 0 0 0 0 0 0 121 126 81
 1 164 232 162 161 168 0 160 169 170 14 166 89 169 ?171 161 172 118 173 -0 0 171
 161 130 15 167 147 0 134 161 137 51 255 128 105 0 161 173 119 0 -0 0 .0035 0 0
 1 .0185 1 0 0 52 173 104 0 166 174 128 0 -0 0 -.0035 0 0 1 .01815 .707106781186
548 .707106781186548 1 0 0 50 255 174 103 0 171 175 173 0 +0 .01815 -.0035 0 0 1
 1 0 0 14 171 84 176 ?177 166 178 118 174 -0 0 177 166 130 51 175 102 0 177 179
 174 0 +0 0 .0035 0 0 1 .0168186813186813 1 0 0 14 177 79 180 ?181 171 182 118 1
75 -0 0 181 171 130 54 255 179 101 0 181 183 175 0 +0 0 -673555739531044e-33 0 0
 1 .0155 .002039282596076095 1 0 0 14 181 74 184 ?185 177 186 118 179 -0 0 185 1
77 130 51 183 100 0 185 187 179 0 +0 0 .0035 0 0 1 .0168186813186813 1 0 0 14 18
5 69 188 ?158 181 189 118 183 -0 0 158 181 130 50 187 99 0 158 0 183 0 +0 .01815
 .0035 0 0 -1 -1 0 0 14 158 64 190 ?0 185 191 118 187 -0 0 0 185 130 81 1 190 23
8 162 158 192 0 188 0 193 15 191 153 0 194 158 156 17 194 0 191 194 194 0 153 15
1 0 0 -17 153 0 195 153 153 0 194 151 0 0 +15 195 68 0 153 185 0 80 255 1 162 19
6 197 9000 1 1 1 1 1 1 1 1 0 FFFFTFTFFFFFFF1 81 1 192 212 198 158 0 190 199 0 20
0 81 1 188 237 162 185 199 0 184 190 201 82 255 1 193 -848232322 81 1 199 211 19
8 185 0 188 202 192 203 81 1 184 236 162 181 202 0 180 188 204 82 1 201 -8476424
98 81 1 202 210 198 181 0 184 205 199 206 81 1 180 235 162 177 205 0 176 184 207
 82 1 204 -847052674 81 1 205 209 198 177 0 180 208 202 209 81 1 176 234 162 171
 208 0 169 180 210 82 1 207 -846462850 81 1 208 208 198 171 0 176 211 205 212 81
 1 169 233 162 166 211 0 164 176 213 82 1 210 -845873026 81 1 211 207 198 166 0
 169 168 208 214 82 1 213 -845283202 80 1 198 0 215 8001 0 0 0 0 3 5 0 0 0 FFFFT
FTFFFFFFF2 81 1 168 206 198 161 0 164 163 211 216 83 255 3 214 .752941176470588
 .752941176470588 .752941176470588 81 1 163 205 198 126 0 160 0 168 217 83 3 216
 .752941176470588 .752941176470588 .752941176470588 83 3 217 .752941176470588 .7
52941176470588 .752941176470588 79 255 15 215 SDL/TYSA_COLOUR83 3 212 .752941176
470588 .752941176470588 .752941176470588 83 3 209 .752941176470588 .752941176470
588 .752941176470588 83 3 206 .752941176470588 .752941176470588 .752941176470588
 83 3 203 .752941176470588 .752941176470588 .752941176470588 83 3 200 .752941176
470588 .752941176470588 .752941176470588 79 14 197 SWEntUnchanged15 189 152 0 21
8 185 195 17 218 0 189 218 218 0 150 148 0 0 -17 150 0 219 150 150 0 218 148 0 0
 +15 219 73 0 150 181 0 15 186 151 0 220 181 219 17 220 0 186 220 220 0 147 145
 0 0 -17 147 0 221 147 147 0 220 145 0 0 +15 221 78 0 147 177 0 15 182 150 0 222
 177 221 17 222 0 182 222 222 0 144 140 0 0 -17 144 0 223 144 144 0 222 140 0 0
 +15 223 83 0 144 171 0 15 178 149 0 224 171 223 17 224 0 178 224 224 0 139 136
 0 0 -17 139 0 225 139 139 0 224 136 0 0 +15 225 88 0 139 166 0 17 134 0 167 134
 134 0 131 122 0 0 -15 137 93 0 135 161 0 15 172 148 0 138 166 225 17 138 0 172
 138 138 0 135 132 0 0 -82 1 170 -844693378 82 1 165 -844365698 19 127 52 0 108
 0 121 118 S0 74 4 CI16 index_map_offset0 0 1 dCCZ20 125 4 0 0 190 124 192 115 0
 0 0 0 0 0 0 0 0 0 0 0 0 0 0 0 81 2 124 203 226 108 0 115 0 0 227 0 80 2 226 228
 229 8004 0 0 0 0 3 5 0 0 0 FFTFFFFFFFFFFF2 3 83 1 227 1 79 16 229 SDL/TYSA_DENS
ITY80 1 123 230 231 8017 0 0 0 0 0 0 0 0 0 TTTTTTTTTTTTTF3 79 13 231 SDL/TYSA_NA
ME81 1 106 238 123 100 232 0 0 0 0 70 107 0 4 T100 0 0 4 20 1 233 233 13 109 53
 0 100 0 234 0 0 235 0 50 110 106 0 234 236 0 0 +0 .01418131868131868 .0035 0 0
 -1 -1 0 0 31 111 114 0 113 237 0 0 +0 0 .0035 0 0 1 1 0 0 .01418131868131868 19
 112 57 0 100 235 0 238 V0 16 113 91 0 ?239 0 240 111 0 0 100 17 239 0 241 239 2
39 0 242 113 0 0 +16 240 86 0 ?243 113 244 237 0 0 100 17 243 0 245 243 243 0 24
6 240 0 0 +16 244 81 0 ?247 240 248 249 0 0 100 31 237 113 0 240 249 111 0 +0 0
 .001555555555555555 0 0 1 1 0 0 .01418131868131868 31 249 112 0 244 250 237 0 +
0 0 -.00155555555555556 0 0 1 1 0 0 .01418131868131868 31 250 111 0 248 251 249
 0 +0 0 -.0035 0 0 1 1 0 0 .01418131868131868 16 248 76 0 ?252 244 253 250 0 0 1
00 31 251 110 0 253 254 250 0 +0 0 -.0035 0 0 1 1 0 0 .01285 16 253 71 0 ?255 24
8 256 251 0 0 100 31 254 109 0 256 257 251 0 +0 0 -.00315 0 0 1 1 0 0 .0125 16 2
56 66 0 ?258 253 259 254 0 0 100 31 257 108 0 259 260 254 0 +0 0 .00315 0 0 1 1
 0 0 .0125 16 259 61 0 ?261 256 262 257 0 0 100 31 260 107 0 262 0 257 0 +0 0 .0
035 0 0 1 1 0 0 .01285 16 262 59 0 ?263 259 0 260 0 0 100 17 263 0 264 263 263 0
 265 262 0 0 +15 264 63 0 263 266 0 17 265 0 267 265 265 0 263 262 0 0 -15 267 1
54 0 265 234 241 14 234 97 268 ?269 0 267 109 110 -0 0 269 0 238 15 241 96 0 239
 234 0 81 1 268 230 162 234 270 0 0 271 272 14 269 94 271 ?273 234 274 109 236 -
0 0 273 234 238 13 238 56 0 0 0 0 0 0 112 234 81 1 271 231 162 269 275 0 268 276
 277 14 273 89 276 ?278 269 279 109 280 -0 0 278 269 238 15 274 147 0 242 269 24
5 51 236 105 0 269 280 110 0 -0 0 .0035 0 0 1 .01418131868131868 1 0 0 54 280 10
4 0 273 281 236 0 +0 0 -477048955893622e-32 0 0 1 .0155 .00203928259607609 1 0 0
 51 281 103 0 278 282 280 0 -0 0 .0035 0 0 1 .01418131868131868 1 0 0 14 278 84
 283 ?284 273 285 109 281 -0 0 284 273 238 50 282 102 0 284 286 281 0 +0 .01285
 -.0035 0 0 1 1 0 0 14 284 79 287 ?288 278 289 109 282 -0 0 288 278 238 52 286 1
01 0 288 290 282 0 +0 0 -.00315 0 0 -1 .0125 .707106781186549 .707106781186546 -
1 0 0 14 288 74 291 ?292 284 293 109 286 -0 0 292 284 238 51 290 100 0 292 294 2
86 0 +0 0 .0035 0 0 1 .0125 1 0 0 14 292 69 295 ?266 288 296 109 290 -0 0 266 28
8 238 52 294 99 0 266 0 290 0 +0 0 .0035 0 0 1 .01285 .707106781186546 .70710678
1186549 1 0 0 14 266 64 297 ?0 292 298 109 294 -0 0 0 292 238 81 1 297 237 162 2
66 299 0 295 0 300 15 298 153 0 301 266 264 17 301 0 298 301 301 0 261 259 0 0 -
17 261 0 302 261 261 0 301 259 0 0 +15 302 68 0 261 292 0 81 1 299 211 198 266 0
 297 303 0 304 81 1 295 236 162 292 303 0 291 297 305 82 1 300 -799473536 81 1 3
03 210 198 292 0 295 306 299 307 81 1 291 235 162 288 306 0 287 295 308 82 1 305
 -798883712 81 1 306 209 198 288 0 291 309 303 310 81 1 287 234 162 284 309 0 28
3 291 311 82 1 308 -798293888 81 1 309 208 198 284 0 287 312 306 313 81 1 283 23
3 162 278 312 0 276 287 314 82 1 311 -797704064 81 1 312 207 198 278 0 283 315 3
09 316 81 1 276 232 162 273 315 0 271 283 317 82 1 314 -797114240 81 1 315 206 1
98 273 0 276 275 312 318 82 1 317 -796524416 81 1 275 205 198 269 0 271 270 315
 319 83 3 318 .752941176470588 .752941176470588 .752941176470588 81 1 270 204 19
8 234 0 268 0 275 320 83 3 319 .752941176470588 .752941176470588 .75294117647058
8 83 3 320 .752941176470588 .752941176470588 .752941176470588 83 3 316 .75294117
6470588 .752941176470588 .752941176470588 83 3 313 .752941176470588 .75294117647
0588 .752941176470588 83 3 310 .752941176470588 .752941176470588 .75294117647058
8 83 3 307 .752941176470588 .752941176470588 .752941176470588 83 3 304 .75294117
6470588 .752941176470588 .752941176470588 15 296 152 0 321 292 302 17 321 0 296
 321 321 0 258 256 0 0 -17 258 0 322 258 258 0 321 256 0 0 +15 322 73 0 258 288
 0 15 293 151 0 323 288 322 17 323 0 293 323 323 0 255 253 0 0 -17 255 0 324 255
 255 0 323 253 0 0 +15 324 78 0 255 284 0 15 289 150 0 325 284 324 17 325 0 289
 325 325 0 252 248 0 0 -17 252 0 326 252 252 0 325 248 0 0 +15 326 83 0 252 278
 0 15 285 149 0 327 278 326 17 327 0 285 327 327 0 247 244 0 0 -17 247 0 328 247
 247 0 327 244 0 0 +15 328 88 0 247 273 0 17 242 0 274 242 242 0 239 113 0 0 -15
 245 93 0 243 269 0 15 279 148 0 246 273 328 17 246 0 279 246 246 0 243 240 0 0
 -82 1 277 -795934592 82 1 272 -795606912 19 235 52 0 100 0 112 109 S0 74 20 233
 4 0 0 297 232 299 106 0 0 0 0 0 0 0 0 0 0 0 0 0 0 0 0 81 2 232 203 226 100 0 10
6 0 0 329 0 83 1 329 1 81 1 98 67 123 92 330 0 0 0 0 70 99 0 4 T92 0 0 4 20 1 33
1 331 13 101 17 0 92 0 332 0 0 333 0 53 255 102 34 0 332 0 0 0 -0 .0155 -6735557
39531044e-33 .002039282596076095 0 0 1 0 1 0 19 103 21 0 92 333 0 334 V0 19 333
 16 0 92 0 103 101 S0 13 334 20 0 0 0 0 0 0 103 332 14 332 31 335 ?0 0 0 101 102
 -0 0 0 0 334 81 1 335 66 162 332 336 0 0 0 337 81 1 336 61 198 332 0 335 0 0 33
8 82 1 337 -776601470 83 3 338 .752941176470588 .752941176470588 .75294117647058
8 74 20 331 4 0 0 330 336 335 98 0 0 0 0 0 0 0 0 0 0 0 0 0 0 0 0 81 2 330 60 226
 92 0 98 0 0 339 0 83 1 339 1 81 1 90 74 123 84 340 0 0 0 0 70 91 0 4 T84 0 0 4
 20 1 341 341 13 93 17 0 84 0 342 0 0 343 0 53 94 34 0 342 0 0 0 -.00775 .013423
3937586588 -673555739531044e-33 .002039282596076095 0 0 1 .5 .866025403784438 0
 19 95 21 0 84 343 0 344 V0 19 343 16 0 84 0 95 93 S0 13 344 20 0 0 0 0 0 0 95 3
42 14 342 31 345 ?0 0 0 93 94 -0 0 0 0 344 81 1 345 73 162 342 346 0 0 0 347 81
 1 346 68 198 342 0 345 0 0 348 82 1 347 -773848956 83 3 348 .752941176470588 .7
52941176470588 .752941176470588 74 20 341 4 0 0 340 346 345 90 0 0 0 0 0 0 0 0 0
 0 0 0 0 0 0 0 81 2 340 67 226 84 0 90 0 0 349 0 83 1 349 1 81 1 82 74 123 76 35
0 0 0 0 0 70 83 0 4 T76 0 0 4 20 1 351 351 13 85 17 0 76 0 352 0 0 353 0 53 86 3
4 0 352 0 0 0 -.01342339375865882 .00775 -673555739531044e-33 .00203928259607609
5 0 0 1 .86602540378444 .5 0 19 87 21 0 76 353 0 354 V0 19 353 16 0 76 0 87 85 S
0 13 354 20 0 0 0 0 0 0 87 352 14 352 31 355 ?0 0 0 85 86 -0 0 0 0 354 81 1 355
 73 162 352 356 0 0 0 357 81 1 356 68 198 352 0 355 0 0 358 82 1 357 -772472700
 83 3 358 .752941176470588 .752941176470588 .752941176470588 74 20 351 4 0 0 350
 356 355 82 0 0 0 0 0 0 0 0 0 0 0 0 0 0 0 0 81 2 350 67 226 76 0 82 0 0 359 0 83
 1 359 1 81 1 74 74 123 68 360 0 0 0 0 70 75 0 4 T68 0 0 4 20 1 361 361 13 77 17
 0 68 0 362 0 0 363 0 53 78 34 0 362 0 0 0 -.0155 -541179607520686e-31 -67355573
9531044e-33 .002039282596076095 0 0 1 1 -3491481338843135e-30 0 19 79 21 0 68 36
3 0 364 V0 19 363 16 0 68 0 79 77 S0 13 364 20 0 0 0 0 0 0 79 362 14 362 31 365
 ?0 0 0 77 78 -0 0 0 0 364 81 1 365 73 162 362 366 0 0 0 367 81 1 366 68 198 362
 0 365 0 0 368 82 1 367 -771096444 83 3 368 .752941176470588 .752941176470588 .7
52941176470588 74 20 361 4 0 0 360 366 365 74 0 0 0 0 0 0 0 0 0 0 0 0 0 0 0 0 81
 2 360 67 226 68 0 74 0 0 369 0 83 1 369 1 81 1 66 74 123 60 370 0 0 0 0 70 67 0
 4 T60 0 0 4 20 1 371 371 13 69 17 0 60 0 372 0 0 373 0 53 70 34 0 372 0 0 0 -.0
1342339375865876 -.00775 -673555739531044e-33 .002039282596076095 0 0 1 .8660254
03784437 -.5 0 19 71 21 0 60 373 0 374 V0 19 373 16 0 60 0 71 69 S0 13 374 20 0
 0 0 0 0 0 71 372 14 372 31 375 ?0 0 0 69 70 -0 0 0 0 374 81 1 375 73 162 372 37
6 0 0 0 377 81 1 376 68 198 372 0 375 0 0 378 82 1 377 -769720188 83 3 378 .7529
41176470588 .752941176470588 .752941176470588 74 20 371 4 0 0 370 376 375 66 0 0
 0 0 0 0 0 0 0 0 0 0 0 0 0 0 81 2 370 67 226 60 0 66 0 0 379 0 83 1 379 1 81 1 5
8 74 123 52 380 0 0 0 0 70 59 0 4 T52 0 0 4 20 1 381 381 13 61 17 0 52 0 382 0 0
 383 0 53 62 34 0 382 0 0 0 -.00775 -.01342339375865884 -673555739531044e-33 .00
2039282596076095 0 0 1 .5 -.866025403784442 0 19 63 21 0 52 383 0 384 V0 19 383
 16 0 52 0 63 61 S0 13 384 20 0 0 0 0 0 0 63 382 14 382 31 385 ?0 0 0 61 62 -0 0
 0 0 384 81 1 385 73 162 382 386 0 0 0 387 81 1 386 68 198 382 0 385 0 0 388 82
 1 387 -768343932 83 3 388 .752941176470588 .752941176470588 .752941176470588 74
 20 381 4 0 0 380 386 385 58 0 0 0 0 0 0 0 0 0 0 0 0 0 0 0 0 81 2 380 67 226 52
 0 58 0 0 389 0 83 1 389 1 81 1 50 74 123 44 390 0 0 0 0 70 51 0 4 T44 0 0 4 20
 1 391 391 13 53 17 0 44 0 392 0 0 393 0 53 54 34 0 392 0 0 0 --108235921504137e
-30 -.0155 -673555739531044e-33 .002039282596076095 0 0 1 -698296267768627e-29 -
1 0 19 55 21 0 44 393 0 394 V0 19 393 16 0 44 0 55 53 S0 13 394 20 0 0 0 0 0 0 5
5 392 14 392 31 395 ?0 0 0 53 54 -0 0 0 0 394 81 1 395 73 162 392 396 0 0 0 397
 81 1 396 68 198 392 0 395 0 0 398 82 1 397 -766967676 83 3 398 .752941176470588
 .752941176470588 .752941176470588 74 20 391 4 0 0 390 396 395 50 0 0 0 0 0 0 0
 0 0 0 0 0 0 0 0 0 81 2 390 67 226 44 0 50 0 0 399 0 83 1 399 1 81 1 42 74 123 3
6 400 0 0 0 0 70 43 0 4 T36 0 0 4 20 1 401 401 13 45 17 0 36 0 402 0 0 403 0 53
 46 34 0 402 0 0 0 --.00775000000000011 -.01342339375865874 -673555739531044e-33
 .002039282596076095 0 0 1 -.500000000000007 -.866025403784435 0 19 47 21 0 36 4
03 0 404 V0 19 403 16 0 36 0 47 45 S0 13 404 20 0 0 0 0 0 0 47 402 14 402 31 405
 ?0 0 0 45 46 -0 0 0 0 404 81 1 405 73 162 402 406 0 0 0 407 81 1 406 68 198 402
 0 405 0 0 408 82 1 407 -765591420 83 3 408 .752941176470588 .752941176470588 .7
52941176470588 74 20 401 4 0 0 400 406 405 42 0 0 0 0 0 0 0 0 0 0 0 0 0 0 0 0 81
 2 400 67 226 36 0 42 0 0 409 0 83 1 409 1 81 1 34 74 123 28 410 0 0 0 0 70 35 0
 4 T28 0 0 4 20 1 411 411 13 37 17 0 28 0 412 0 0 413 0 53 38 34 0 412 0 0 0 --.
01342339375865886 -.00774999999999988 -673555739531044e-33 .002039282596076095 0
 0 1 -.866025403784443 -.499999999999992 0 19 39 21 0 28 413 0 414 V0 19 413 16
 0 28 0 39 37 S0 13 414 20 0 0 0 0 0 0 39 412 14 412 31 415 ?0 0 0 37 38 -0 0 0
 0 414 81 1 415 73 162 412 416 0 0 0 417 81 1 416 68 198 412 0 415 0 0 418 82 1
 417 -764215164 83 3 418 .752941176470588 .752941176470588 .752941176470588 74 2
0 411 4 0 0 410 416 415 34 0 0 0 0 0 0 0 0 0 0 0 0 0 0 0 0 81 2 410 67 226 28 0
 34 0 0 419 0 83 1 419 1 81 1 26 74 123 20 420 0 0 0 0 70 27 0 4 T20 0 0 4 20 1
 421 421 13 29 17 0 20 0 422 0 0 423 0 53 30 34 0 422 0 0 0 --.0155 162353882256
2055e-31 -673555739531044e-33 .002039282596076095 0 0 1 -1 104744440165294e-28 0
 19 31 21 0 20 423 0 424 V0 19 423 16 0 20 0 31 29 S0 13 424 20 0 0 0 0 0 0 31 4
22 14 422 31 425 ?0 0 0 29 30 -0 0 0 0 424 81 1 425 73 162 422 426 0 0 0 427 81
 1 426 68 198 422 0 425 0 0 428 82 1 427 -762838908 83 3 428 .752941176470588 .7
52941176470588 .752941176470588 74 20 421 4 0 0 420 426 425 26 0 0 0 0 0 0 0 0 0
 0 0 0 0 0 0 0 81 2 420 67 226 20 0 26 0 0 429 0 83 1 429 1 81 1 18 74 123 12 43
0 0 0 0 0 70 19 0 4 T12 0 0 4 20 1 431 431 13 21 17 0 12 0 432 0 0 433 0 53 22 3
4 0 432 0 0 0 --.0134233937586587 .00775000000000016 -673555739531044e-33 .00203
9282596076095 0 0 1 -.866025403784433 .50000000000001 0 19 23 21 0 12 433 0 434
 V0 19 433 16 0 12 0 23 21 S0 13 434 20 0 0 0 0 0 0 23 432 14 432 31 435 ?0 0 0
 21 22 -0 0 0 0 434 81 1 435 73 162 432 436 0 0 0 437 81 1 436 68 198 432 0 435
 0 0 438 82 1 437 -761462652 83 3 438 .752941176470588 .752941176470588 .7529411
76470588 74 20 431 4 0 0 430 436 435 18 0 0 0 0 0 0 0 0 0 0 0 0 0 0 0 0 81 2 430
 67 226 12 0 18 0 0 439 0 83 1 439 1 81 1 10 74 123 7 440 0 0 0 0 70 11 0 4 T7 0
 0 4 20 1 441 441 13 13 17 0 7 0 442 0 0 443 0 53 14 34 0 442 0 0 0 --.007749999
99999983 .0134233937586589 -673555739531044e-33 .002039282596076095 0 0 1 -.4999
99999999989 .866025403784445 0 19 15 21 0 7 443 0 444 V0 19 443 16 0 7 0 15 13 S
0 13 444 20 0 0 0 0 0 0 15 442 14 442 31 445 ?0 0 0 13 14 -0 0 0 0 444 81 1 445
 73 162 442 446 0 0 0 447 81 1 446 68 198 442 0 445 0 0 448 82 1 447 -760086396
 83 3 448 .752941176470588 .752941176470588 .752941176470588 74 20 441 4 0 0 440
 446 445 10 0 0 0 0 0 0 0 0 0 0 0 0 0 0 0 0 81 2 440 67 226 7 0 10 0 0 449 0 83
 1 449 1 74 20 6 1 0 0 2 0 0 0 0 0 0 0 0 0 0 0 0 0 0 0 0 0 0 0 80 2 5 450 451 90
00 0 0 0 0 3 5 0 0 0 TFFFFFFFFFFFFF9 1 79 18 451 MULTI_BODY_ID_20011 0 
