**ABCDEFGHIJKLMNOPQRSTUVWXYZabcdefghijklmnopqrstuvwxyz**************************
**PARASOLID !"#$%&'()*+,-./:;<=>?@[\]^_`{|}~0123456789**************************
**PART1;
MC=AMD64;
MC_MODEL=Intel64 Family 6 Model 158 Stepping 9, GenuineIntel;
MC_ID=unknown;
OS=Windows_NT;
OS_RELEASE=unknown;
FRU=Parasolid Version 30.0, build 298, 12-15-2017;
APPL=SOLIDWORKS 2018-2018134;
SITE=;
USER=unknown;
FORMAT=text;
GUISE=transmit;
KEY=57155K349_STAINLESS STEEL BALL BEARING;
FILE=57155K349_STAINLESS STEEL BALL BEARING.x_t;
DATE=Fri Oct 19 14:40:40 2018;
**PART2;
SCH=SCH_3000298_30000;
USFLD_SIZE=0;
**PART3;
**END_OF_HEADER*****************************************************************
T51 : TRANSMIT FILE created by modeller version 300029823 SCH_3000298_30000_1300
6205 0 10 19 CCCCCCCI4 mesh1006 0 I8 polyline1008 0 CCCCCCCCCCZ1 27 2 3 0 0 0 0
 0 0 0 1e3 1e-8 0 0 0 1 0 1 4 81 255 2 2 27 5 1 0 0 0 0 0 0 70 11 CI9 list_type0
 0 1 uI10 notransmit0 0 1 lCCCDCCDI12 finger_index0 0 1 dI12 finger_block1012 0
 CZ3 0 4 T1 0 0 1 20 1 6 6 11 255 4 25 0 1 7 8 1 9 0 0 0 12 33 CCCCCCI4 mesh1006
 0 I8 polyline1008 0 CCCCCCCDI5 owner1040 0 CCCCCCI13 boundary_mesh1006 0 I17 bo
undary_polyline1008 0 CCCA16 index_map_offset0 0 1 dA9 index_map82 0 A17 node_id
_index_map82 0 A20 schema_embedding_map82 0 A5 child12 0 A14 lowest_node_id0 0 1
 dZ7 81 10 11 0 0 0 0 0 0 1e3 1e-8 4 12 0 1 0 1 1 13 14 0 0 0 0 15 0 0 0 0 0 0 0
 0 100 255 8 26 4 0 0 1 0 0 0 1 0 0 0 1 0 0 0 1 0 ?11 9 23 0 1 12 16 1 17 4 0 0
 12 12 81 18 19 0 0 0 0 0 0 1e3 1e-8 9 20 7 1 0 1 1 21 22 0 0 0 0 23 0 0 0 0 0 0
 0 0 100 16 24 9 0 0 1 0 0 0 1 0 0 0 1 0 0 0 1 0 ?11 17 21 0 1 20 24 1 25 9 0 0
 12 20 81 26 27 0 0 0 0 0 0 1e3 1e-8 17 28 12 1 0 1 1 29 30 0 0 0 0 31 0 0 0 0 0
 0 0 0 100 24 22 17 0 0 1 0 0 0 1 0 0 0 1 0 0 0 1 0 ?11 25 19 0 1 28 32 1 33 17
 0 0 12 28 81 34 35 0 0 0 0 0 0 1e3 1e-8 25 36 20 1 0 1 1 37 38 0 0 0 0 39 0 0 0
 0 0 0 0 0 100 32 20 25 0 0 1 0 0 0 1 0 0 0 1 0 0 0 1 0 ?11 33 17 0 1 36 40 1 41
 25 0 0 12 36 81 42 43 0 0 0 0 0 0 1e3 1e-8 33 44 28 1 0 1 1 45 46 0 0 0 0 47 0
 0 0 0 0 0 0 0 100 40 18 33 0 0 1 0 0 0 1 0 0 0 1 0 0 0 1 0 ?11 41 15 0 1 44 48
 1 49 33 0 0 12 44 81 50 51 0 0 0 0 0 0 1e3 1e-8 41 52 36 1 0 1 1 53 54 0 0 0 0
 55 0 0 0 0 0 0 0 0 100 48 16 41 0 0 1 0 0 0 1 0 0 0 1 0 0 0 1 0 ?11 49 13 0 1 5
2 56 1 57 41 0 0 12 52 81 58 59 0 0 0 0 0 0 1e3 1e-8 49 60 44 1 0 1 1 61 62 0 0
 0 0 63 0 0 0 0 0 0 0 0 100 56 14 49 0 0 1 0 0 0 1 0 0 0 1 0 0 0 1 0 ?11 57 11 0
 1 60 64 1 65 49 0 0 12 60 81 66 67 0 0 0 0 0 0 1e3 1e-8 57 68 52 1 0 1 1 69 70
 0 0 0 0 71 0 0 0 0 0 0 0 0 100 64 12 57 0 0 1 0 0 0 1 0 0 0 1 0 0 0 1 0 ?11 65
 9 0 1 68 72 1 73 57 0 0 12 68 81 74 75 0 0 0 0 0 0 1e3 1e-8 65 76 60 1 0 1 1 77
 78 0 0 0 0 79 0 0 0 0 0 0 0 0 100 72 10 65 0 0 1 0 0 0 1 0 0 0 1 0 0 0 1 0 ?11
 73 7 0 1 76 80 1 81 65 0 0 12 76 73 82 83 0 0 0 0 0 0 1e3 1e-8 73 84 68 1 0 1 1
 85 86 0 0 0 0 87 0 0 0 0 0 0 0 0 100 80 8 73 0 0 1 0 0 0 1 0 0 0 1 0 0 0 1 0 ?1
1 81 5 0 1 84 88 1 89 73 0 0 12 84 305 90 91 0 0 0 0 0 0 1e3 1e-8 81 92 76 1 0 1
 1 93 94 95 0 0 0 96 97 0 0 0 0 0 0 0 100 88 6 81 0 0 1 0 0 0 1 0 0 0 1 0 0 0 1
 0 ?11 89 3 0 1 92 98 1 99 81 0 0 12 92 197 100 101 0 0 0 0 0 0 1e3 1e-8 89 102
 84 1 0 1 1 103 104 105 0 0 0 106 107 0 0 0 0 0 0 0 100 98 4 89 0 0 1 0 0 0 1 0
 0 0 1 0 0 0 1 0 ?11 99 1 0 1 102 108 1 0 89 0 0 12 102 252 109 110 0 0 0 0 0 0
 1e3 1e-8 99 111 92 1 0 1 1 112 113 114 0 0 0 115 116 0 0 0 0 0 0 0 100 108 2 99
 0 0 1 0 0 0 1 0 0 0 1 0 0 0 1 0 ?81 1 109 252 117 102 118 0 0 0 0 70 110 0 4 T1
02 0 0 4 20 1 119 119 13 255 112 53 0 102 0 120 0 0 121 0 52 255 113 106 0 120 1
22 0 0 -0 0 .0017859375 0 0 -1 .0047625 .707106781186547 .707106781186548 -1 0 0
 31 255 114 114 0 116 123 0 0 +0 0 .0017859375 0 0 1 1 0 0 .0047625 19 8 CCCCCCC
A5 owner12 0 Z115 57 0 102 121 0 124 V0 16 255 116 91 0 ?125 0 126 114 0 0 102 1
7 255 125 0 127 125 125 0 128 116 0 0 +16 126 86 0 ?129 116 130 123 0 0 102 17 1
29 0 131 129 129 0 132 126 0 0 +16 130 81 0 ?133 126 134 135 0 0 102 31 123 113
 0 126 135 114 0 +0 0 -.0017859375 0 0 1 1 0 0 .0047625 31 135 112 0 130 136 123
 0 +0 0 -.001984375 0 0 1 1 0 0 .0045640625 31 136 111 0 134 137 135 0 +0 0 -.00
1984375 0 0 1 1 0 0 .00341923076923077 16 134 76 0 ?138 130 139 136 0 0 102 31 1
37 110 0 139 140 136 0 +0 0 -.000881944444444445 0 0 1 1 0 0 .00341923076923077
 16 139 71 0 ?141 134 142 137 0 0 102 31 140 109 0 142 143 137 0 +0 0 .000881944
444444444 0 0 1 1 0 0 .00341923076923077 16 142 66 0 ?144 139 145 140 0 0 102 31
 143 108 0 145 146 140 0 +0 0 .001984375 0 0 1 1 0 0 .00341923076923077 16 145 6
1 0 ?147 142 148 143 0 0 102 31 146 107 0 148 0 143 0 +0 0 .001984375 0 0 1 1 0
 0 .0045640625 16 148 59 0 ?149 145 0 146 0 0 102 17 149 0 150 149 149 0 151 148
 0 0 +15 255 150 63 0 149 152 0 17 151 0 153 151 151 0 149 148 0 0 -15 153 154 0
 151 120 127 14 255 120 97 154 ?155 0 153 112 113 -0 0 155 0 124 15 127 96 0 125
 120 0 81 1 154 244 156 120 157 0 0 158 159 14 155 94 158 ?160 120 161 112 122 -
0 0 160 120 124 13 124 56 0 0 0 0 0 0 115 120 81 1 158 245 156 155 162 0 154 163
 164 14 160 89 163 ?165 155 166 112 167 -0 0 165 155 124 15 161 147 0 128 155 13
1 51 255 122 105 0 155 167 113 0 -0 0 .001984375 0 0 1 .0047625 1 0 0 52 167 104
 0 160 168 122 0 -0 0 -.001984375 0 0 1 .0045640625 .707106781186546 .7071067811
86549 1 0 0 50 255 168 103 0 165 169 167 0 +0 .0045640625 -.001984375 0 0 1 1 0
 0 14 165 84 170 ?171 160 172 112 168 -0 0 171 160 124 51 169 102 0 171 173 168
 0 +0 0 .001984375 0 0 1 .00341923076923077 1 0 0 14 171 79 174 ?175 165 176 112
 169 -0 0 175 165 124 54 255 173 101 0 175 177 169 0 +0 0 -583238038093927e-33 0
 0 1 .003175 .000915136422466876 1 0 0 14 175 74 178 ?179 171 180 112 173 -0 0 1
79 171 124 51 177 100 0 179 181 173 0 +0 0 .001984375 0 0 1 .00341923076923077 1
 0 0 14 179 69 182 ?152 175 183 112 177 -0 0 152 175 124 50 181 99 0 152 0 177 0
 +0 .0045640625 .001984375 0 0 -1 -1 0 0 14 152 64 184 ?0 179 185 112 181 -0 0 0
 179 124 81 1 184 251 156 152 186 0 182 0 187 15 185 153 0 188 152 150 17 188 0
 185 188 188 0 147 145 0 0 -17 147 0 189 147 147 0 188 145 0 0 +15 189 68 0 147
 179 0 80 255 1 156 190 191 9000 1 1 1 1 1 1 1 1 0 FFFFTFTFFFFFFF1 81 1 186 225
 192 152 0 184 193 0 194 81 1 182 250 156 179 193 0 178 184 195 82 255 1 187 -21
31296129 81 1 193 224 192 179 0 182 196 186 197 81 1 178 249 156 175 196 0 174 1
82 198 82 1 195 -2130706305 81 1 196 223 192 175 0 178 199 193 200 81 1 174 248
 156 171 199 0 170 178 201 82 1 198 -2130116481 81 1 199 222 192 171 0 174 202 1
96 203 81 1 170 247 156 165 202 0 163 174 204 82 1 201 -2129526657 81 1 202 221
 192 165 0 170 205 199 206 81 1 163 246 156 160 205 0 158 170 207 82 1 204 -2128
936833 81 1 205 220 192 160 0 163 162 202 208 82 1 207 -2128347009 80 1 192 0 20
9 8001 0 0 0 0 3 5 0 0 0 FFFFTFTFFFFFFF2 81 1 162 219 192 155 0 158 157 205 210
 83 255 3 208 .752941176470588 .752941176470588 .752941176470588 81 1 157 218 19
2 120 0 154 0 162 211 83 3 210 .752941176470588 .752941176470588 .75294117647058
8 83 3 211 .752941176470588 .752941176470588 .752941176470588 79 255 15 209 SDL/
TYSA_COLOUR83 3 206 .752941176470588 .752941176470588 .752941176470588 83 3 203
 .752941176470588 .752941176470588 .752941176470588 83 3 200 .752941176470588 .7
52941176470588 .752941176470588 83 3 197 .752941176470588 .752941176470588 .7529
41176470588 83 3 194 .752941176470588 .752941176470588 .752941176470588 79 14 19
1 SWEntUnchanged15 183 152 0 212 179 189 17 212 0 183 212 212 0 144 142 0 0 -17
 144 0 213 144 144 0 212 142 0 0 +15 213 73 0 144 175 0 15 180 151 0 214 175 213
 17 214 0 180 214 214 0 141 139 0 0 -17 141 0 215 141 141 0 214 139 0 0 +15 215
 78 0 141 171 0 15 176 150 0 216 171 215 17 216 0 176 216 216 0 138 134 0 0 -17
 138 0 217 138 138 0 216 134 0 0 +15 217 83 0 138 165 0 15 172 149 0 218 165 217
 17 218 0 172 218 218 0 133 130 0 0 -17 133 0 219 133 133 0 218 130 0 0 +15 219
 88 0 133 160 0 17 128 0 161 128 128 0 125 116 0 0 -15 131 93 0 129 155 0 15 166
 148 0 132 160 219 17 132 0 166 132 132 0 129 126 0 0 -82 1 164 -2127757185 82 1
 159 -2127429505 19 121 52 0 102 0 115 112 S0 74 4 CI16 index_map_offset0 0 1 dC
CZ20 119 4 0 0 184 118 186 109 0 0 0 0 0 0 0 0 0 0 0 0 0 0 0 0 81 2 118 191 220
 102 0 109 0 0 221 0 80 2 220 222 223 8004 0 0 0 0 3 5 0 0 0 FFTFFFFFFFFFFF2 3 8
3 1 221 1 79 16 223 SDL/TYSA_DENSITY80 1 117 224 225 8017 0 0 0 0 0 0 0 0 0 TTTT
TTTTTTTTTF3 79 13 225 SDL/TYSA_NAME81 1 100 197 117 92 226 0 0 0 0 70 101 0 4 T9
2 0 0 4 20 1 227 227 13 103 41 0 92 0 228 0 0 229 0 50 104 82 0 228 230 0 0 +0 .
00293076923076923 .001984375 0 0 -1 -1 0 0 31 105 88 0 107 231 0 0 +0 0 .0019843
75 0 0 1 1 0 0 .002427225509767895 19 106 45 0 92 229 0 232 V0 16 107 69 0 ?233
 0 234 105 0 0 92 17 233 0 235 233 233 0 236 107 0 0 +16 234 64 0 ?237 107 238 2
31 0 0 92 17 237 0 239 237 237 0 240 234 0 0 +16 238 59 0 ?241 234 242 243 0 0 9
2 31 231 87 0 234 243 105 0 +0 0 .001480831278998668 0 0 1 1 0 0 .00192368178876
656 31 243 86 0 238 244 231 0 +0 0 -1301042606982604e-33 0 0 1 1 0 0 .0019236817
8876656 31 244 85 0 242 245 243 0 +0 0 -433680868994202e-33 0 0 1 1 0 0 .0022598
63577533125 16 242 54 0 ?246 238 247 244 0 0 92 31 245 84 0 247 248 244 0 +0 0 .
000881944444444444 0 0 1 1 0 0 .00293076923076923 16 247 49 0 ?249 242 250 245 0
 0 92 31 248 83 0 250 0 245 0 +0 0 .001984375 0 0 1 1 0 0 .00293076923076923 16
 250 47 0 ?251 247 0 248 0 0 92 17 251 0 252 251 251 0 253 250 0 0 +15 252 74 0
 251 228 0 17 253 0 254 253 253 0 251 250 0 0 -15 254 113 0 253 255 256 14 255 5
2 257 ?0 258 254 103 259 -0 0 0 258 232 15 256 51 0 249 255 0 17 249 0 256 249 2
49 0 260 247 0 0 +17 260 0 261 260 260 0 249 247 0 0 -15 261 114 0 260 258 262 1
4 258 57 263 ?255 264 261 103 265 -0 0 255 264 232 15 262 56 0 246 258 0 17 246
 0 262 246 246 0 266 242 0 0 +17 266 0 267 266 266 0 246 242 0 0 -15 267 115 0 2
66 264 268 14 264 62 269 ?258 270 267 103 271 -0 0 258 270 232 15 268 61 0 241 2
64 0 17 241 0 268 241 241 0 272 238 0 0 +17 272 0 273 272 272 0 241 238 0 0 -15
 273 116 0 272 270 239 14 270 67 274 ?264 275 273 103 276 -0 0 264 275 232 15 23
9 66 0 237 270 0 81 1 274 194 156 270 277 0 269 278 279 14 275 72 278 ?270 228 2
80 103 230 -0 0 270 228 232 51 276 80 0 270 271 230 0 +0 0 .001984375 0 0 1 .001
92368178876656 1 0 0 13 232 44 0 0 0 0 0 0 106 228 14 228 75 281 ?275 0 282 103
 104 -0 0 275 0 232 81 1 281 196 156 228 283 0 278 0 284 15 282 118 0 236 228 25
2 17 236 0 282 236 236 0 233 107 0 0 -81 1 283 171 192 228 0 281 0 285 286 81 1
 278 195 156 275 285 0 274 281 287 82 1 284 -2092498815 81 1 285 172 192 275 0 2
78 283 277 288 82 1 287 -2092826495 81 1 277 173 192 270 0 274 285 289 290 83 3
 288 .752941176470588 .752941176470588 .752941176470588 81 1 289 174 192 264 0 2
69 277 291 292 83 3 290 .752941176470588 .752941176470588 .752941176470588 81 1
 269 193 156 264 289 0 263 274 293 81 1 291 175 192 258 0 263 289 294 295 83 3 2
92 .752941176470588 .752941176470588 .752941176470588 81 1 263 192 156 258 291 0
 257 269 296 81 1 294 176 192 255 0 257 291 0 297 83 3 295 .752941176470588 .752
941176470588 .752941176470588 81 1 257 191 156 255 294 0 0 263 298 83 3 297 .752
941176470588 .752941176470588 .752941176470588 82 1 298 -2095185791 82 1 296 -20
94595967 82 1 293 -2094006143 83 3 286 .752941176470588 .752941176470588 .752941
176470588 50 271 79 0 264 265 276 0 +0 .00192368178876656 -903419877284327e-33 0
 0 1 1 0 0 52 230 81 0 275 276 104 0 +0 0 .001984375 0 0 1 .002427225509767895 .
707106781186549 .707106781186546 1 0 0 54 265 78 0 258 259 271 0 +0 0 -583238038
093927e-33 0 0 1 .003175 .000915136422466876 1 0 0 51 259 77 0 255 0 265 0 -0 0
 .001984375 0 0 1 .00293076923076923 1 0 0 15 280 117 0 240 275 235 17 240 0 280
 240 240 0 237 234 0 0 -15 235 71 0 233 275 0 82 1 279 -2093416319 19 229 40 0 9
2 0 106 103 S0 74 20 227 4 0 0 281 226 294 100 0 0 0 0 0 0 0 0 0 0 0 0 0 0 0 0 8
1 2 226 149 220 92 0 100 0 0 299 0 83 1 299 1 81 1 90 305 117 84 300 0 0 0 0 70
 91 0 4 T84 0 0 4 20 1 301 301 13 93 65 0 84 0 302 0 0 303 0 50 94 130 0 302 304
 0 0 +0 .002427225509767895 .001984375 0 0 -1 -1 0 0 31 95 140 0 97 305 0 0 +0 0
 .001984375 0 0 1 1 0 0 .002427225509767895 19 96 69 0 84 303 0 306 V0 16 97 113
 0 ?307 0 308 95 0 0 84 17 307 0 309 307 307 0 310 97 0 0 +16 308 108 0 ?311 97
 312 305 0 0 84 17 311 0 313 311 311 0 314 308 0 0 +16 312 103 0 ?315 308 316 31
7 0 0 84 31 305 139 0 308 317 95 0 +0 0 .001480831278998668 0 0 1 1 0 0 .0019236
8178876656 31 317 138 0 312 318 305 0 +0 0 -1301042606982604e-33 0 0 1 1 0 0 .00
192368178876656 31 318 137 0 316 319 317 0 +0 0 -867361737988404e-33 0 0 1 1 0 0
 .002259863577533125 16 316 98 0 ?320 312 321 318 0 0 84 31 319 136 0 321 322 31
8 0 +0 0 -.000881944444444445 0 0 1 1 0 0 .00293076923076923 16 321 93 0 ?323 31
6 324 319 0 0 84 31 322 135 0 324 325 319 0 +0 0 -.001984375 0 0 1 1 0 0 .002930
76923076923 16 324 88 0 ?326 321 327 322 0 0 84 31 325 134 0 327 328 322 0 +0 0
 -.001984375 0 0 1 1 0 0 .0017859375 16 327 83 0 ?329 324 330 325 0 0 84 31 328
 133 0 330 331 325 0 +0 0 -.0017859375 0 0 1 1 0 0 .0015875 16 330 78 0 ?332 327
 333 328 0 0 84 31 331 132 0 333 334 328 0 +0 0 .00164819321123344 0 0 1 1 0 0 .
0015875 16 333 73 0 ?335 330 336 331 0 0 84 31 334 131 0 336 0 331 0 +0 0 .00198
4375 0 0 1 1 0 0 .00192368178876656 16 336 71 0 ?337 333 0 334 0 0 84 17 337 0 3
38 337 337 0 339 336 0 0 +15 338 75 0 337 340 0 17 339 0 341 339 339 0 337 336 0
 0 -15 341 190 0 339 302 309 14 302 119 342 ?343 0 341 93 94 -0 0 343 0 306 15 3
09 118 0 307 302 0 81 1 342 295 156 302 344 0 0 345 346 14 343 116 345 ?347 302
 348 93 304 -0 0 347 302 306 13 306 68 0 0 0 0 0 0 96 302 81 1 345 296 156 343 3
49 0 342 350 351 14 347 111 350 ?352 343 353 93 354 -0 0 352 343 306 15 348 181
 0 310 343 313 52 304 129 0 343 354 94 0 -0 0 .001480831278998668 0 0 1 .0019236
8178876656 .707106781186549 .707106781186546 1 0 0 51 354 128 0 347 355 304 0 -0
 0 .001984375 0 0 1 .00192368178876656 1 0 0 50 355 127 0 352 356 354 0 +0 .0019
2368178876656 -1129535644023356e-33 0 0 -1 -1 0 0 14 352 106 357 ?358 347 359 93
 355 -0 0 358 347 306 54 356 126 0 358 360 355 0 +0 0 -583238038093927e-33 0 0 1
 .003175 .000915136422466875 1 0 0 14 358 101 361 ?362 352 363 93 356 -0 0 362 3
52 306 51 360 125 0 362 364 356 0 -0 0 .001984375 0 0 1 .00293076923076923 1 0 0
 14 362 96 365 ?366 358 367 93 360 -0 0 366 358 306 50 364 124 0 366 368 360 0 +
0 .0017859375 -.001984375 0 0 1 1 0 0 14 366 91 369 ?370 362 371 93 364 -0 0 370
 362 306 52 368 123 0 370 372 364 0 +0 0 -.0017859375 0 0 -1 .0015875 .707106781
186546 .707106781186549 -1 0 0 14 370 86 373 ?374 366 375 93 368 -0 0 374 366 30
6 51 372 122 0 374 376 368 0 +0 0 .001984375 0 0 1 .0015875 1 0 0 14 374 81 377
 ?340 370 378 93 372 -0 0 340 370 306 52 376 121 0 340 0 372 0 +0 0 .001984375 0
 0 1 .00192368178876656 .707106781186549 .707106781186546 1 0 0 14 340 76 379 ?0
 374 380 93 376 -0 0 0 374 306 81 1 379 304 156 340 381 0 377 0 382 15 380 189 0
 383 340 338 17 383 0 380 383 383 0 335 333 0 0 -17 335 0 384 335 335 0 383 333
 0 0 +15 384 80 0 335 374 0 81 1 381 272 192 340 0 379 385 0 386 81 1 377 303 15
6 374 385 0 373 379 387 82 1 382 -2048655229 81 1 385 271 192 374 0 377 388 381
 389 81 1 373 302 156 370 388 0 369 377 390 82 1 387 -2048065405 81 1 388 270 19
2 370 0 373 391 385 392 81 1 369 301 156 366 391 0 365 373 393 82 1 390 -2047475
581 81 1 391 269 192 366 0 369 394 388 395 81 1 365 300 156 362 394 0 361 369 39
6 82 1 393 -2046885757 81 1 394 268 192 362 0 365 397 391 398 81 1 361 299 156 3
58 397 0 357 365 399 82 1 396 -2046295933 81 1 397 267 192 358 0 361 400 394 401
 81 1 357 298 156 352 400 0 350 361 402 82 1 399 -2045706109 81 1 400 266 192 35
2 0 357 403 397 404 81 1 350 297 156 347 403 0 345 357 405 82 1 402 -2045116285
 81 1 403 265 192 347 0 350 349 400 406 82 1 405 -2044526461 81 1 349 264 192 34
3 0 345 344 403 407 83 3 406 .752941176470588 .752941176470588 .752941176470588
 81 1 344 263 192 302 0 342 0 349 408 83 3 407 .752941176470588 .752941176470588
 .752941176470588 83 3 408 .752941176470588 .752941176470588 .752941176470588 83
 3 404 .752941176470588 .752941176470588 .752941176470588 83 3 401 .752941176470
588 .752941176470588 .752941176470588 83 3 398 .752941176470588 .752941176470588
 .752941176470588 83 3 395 .752941176470588 .752941176470588 .752941176470588 83
 3 392 .752941176470588 .752941176470588 .752941176470588 83 3 389 .752941176470
588 .752941176470588 .752941176470588 83 3 386 .752941176470588 .752941176470588
 .752941176470588 15 378 188 0 409 374 384 17 409 0 378 409 409 0 332 330 0 0 -1
7 332 0 410 332 332 0 409 330 0 0 +15 410 85 0 332 370 0 15 375 187 0 411 370 41
0 17 411 0 375 411 411 0 329 327 0 0 -17 329 0 412 329 329 0 411 327 0 0 +15 412
 90 0 329 366 0 15 371 186 0 413 366 412 17 413 0 371 413 413 0 326 324 0 0 -17
 326 0 414 326 326 0 413 324 0 0 +15 414 95 0 326 362 0 15 367 185 0 415 362 414
 17 415 0 367 415 415 0 323 321 0 0 -17 323 0 416 323 323 0 415 321 0 0 +15 416
 100 0 323 358 0 15 363 184 0 417 358 416 17 417 0 363 417 417 0 320 316 0 0 -17
 320 0 418 320 320 0 417 316 0 0 +15 418 105 0 320 352 0 15 359 183 0 419 352 41
8 17 419 0 359 419 419 0 315 312 0 0 -17 315 0 420 315 315 0 419 312 0 0 +15 420
 110 0 315 347 0 17 310 0 348 310 310 0 307 97 0 0 -15 313 115 0 311 343 0 15 35
3 182 0 314 347 420 17 314 0 353 314 314 0 311 308 0 0 -82 1 351 -2043936637 82
 1 346 -2043608957 19 303 64 0 84 0 96 93 S0 74 20 301 4 0 0 379 300 381 90 0 0
 0 0 0 0 0 0 0 0 0 0 0 0 0 0 81 2 300 233 220 84 0 90 0 0 421 0 83 1 421 1 81 1
 82 73 117 76 422 0 0 0 0 70 83 0 4 T76 0 0 4 20 1 423 423 13 85 17 0 76 0 424 0
 0 425 0 53 255 86 34 0 424 0 0 0 -0 .003175 -583238038093927e-33 .0009151364224
66876 0 0 1 0 1 0 19 87 21 0 76 425 0 426 V0 19 425 16 0 76 0 87 85 S0 13 426 20
 0 0 0 0 0 0 87 424 14 424 31 427 ?0 0 0 85 86 -0 0 0 0 426 81 1 427 72 156 424
 428 0 0 0 429 81 1 428 67 192 424 0 427 0 0 430 82 1 429 -2021982075 83 3 430 .
752941176470588 .752941176470588 .752941176470588 74 20 423 4 0 0 422 428 427 82
 0 0 0 0 0 0 0 0 0 0 0 0 0 0 0 0 81 2 422 55 220 76 0 82 0 0 431 0 83 1 431 1 81
 1 74 81 117 68 432 0 0 0 0 70 75 0 4 T68 0 0 4 20 1 433 433 13 77 17 0 68 0 434
 0 0 435 0 53 78 34 0 434 0 0 0 -.001866218176028605 .002568628957140455 -583238
038093927e-33 .000915136422466876 0 0 1 .587785252292474 .809016994374947 0 19 7
9 21 0 68 435 0 436 V0 19 435 16 0 68 0 79 77 S0 13 436 20 0 0 0 0 0 0 79 434 14
 434 31 437 ?0 0 0 77 78 -0 0 0 0 436 81 1 437 80 156 434 438 0 0 0 439 81 1 438
 75 192 434 0 437 0 0 440 82 1 439 -2019229561 83 3 440 .752941176470588 .752941
176470588 .752941176470588 74 20 433 4 0 0 432 438 437 74 0 0 0 0 0 0 0 0 0 0 0
 0 0 0 0 0 81 2 432 63 220 68 0 74 0 0 441 0 83 1 441 1 81 1 66 81 117 60 442 0
 0 0 0 70 67 0 4 T60 0 0 4 20 1 443 443 13 69 17 0 60 0 444 0 0 445 0 53 70 34 0
 444 0 0 0 -.003019604439237115 .00098112895714045 -583238038093927e-33 .0009151
36422466876 0 0 1 .951056516295155 .309016994374945 0 19 71 21 0 60 445 0 446 V0
 19 445 16 0 60 0 71 69 S0 13 446 20 0 0 0 0 0 0 71 444 14 444 31 447 ?0 0 0 69
 70 -0 0 0 0 446 81 1 447 80 156 444 448 0 0 0 449 81 1 448 75 192 444 0 447 0 0
 450 82 1 449 -2017853305 83 3 450 .752941176470588 .752941176470588 .7529411764
70588 74 20 443 4 0 0 442 448 447 66 0 0 0 0 0 0 0 0 0 0 0 0 0 0 0 0 81 2 442 63
 220 60 0 66 0 0 451 0 83 1 451 1 81 1 58 81 117 52 452 0 0 0 0 70 59 0 4 T52 0
 0 4 20 1 453 453 13 61 17 0 52 0 454 0 0 455 0 53 62 34 0 454 0 0 0 -.003019604
43923711 -.000981128957140471 -583238038093927e-33 .000915136422466876 0 0 1 .95
1056516295152 -.3090169943749515 0 19 63 21 0 52 455 0 456 V0 19 455 16 0 52 0 6
3 61 S0 13 456 20 0 0 0 0 0 0 63 454 14 454 31 457 ?0 0 0 61 62 -0 0 0 0 456 81
 1 457 80 156 454 458 0 0 0 459 81 1 458 75 192 454 0 457 0 0 460 82 1 459 -2016
477049 83 3 460 .752941176470588 .752941176470588 .752941176470588 74 20 453 4 0
 0 452 458 457 58 0 0 0 0 0 0 0 0 0 0 0 0 0 0 0 0 81 2 452 63 220 52 0 58 0 0 46
1 0 83 1 461 1 81 1 50 81 117 44 462 0 0 0 0 70 51 0 4 T44 0 0 4 20 1 463 463 13
 53 17 0 44 0 464 0 0 465 0 53 54 34 0 464 0 0 0 -.00186621817602859 -.002568628
95714047 -583238038093927e-33 .000915136422466876 0 0 1 .587785252292469 -.80901
6994374951 0 19 55 21 0 44 465 0 466 V0 19 465 16 0 44 0 55 53 S0 13 466 20 0 0
 0 0 0 0 55 464 14 464 31 467 ?0 0 0 53 54 -0 0 0 0 466 81 1 467 80 156 464 468
 0 0 0 469 81 1 468 75 192 464 0 467 0 0 470 82 1 469 -2015100793 83 3 470 .7529
41176470588 .752941176470588 .752941176470588 74 20 463 4 0 0 462 468 467 50 0 0
 0 0 0 0 0 0 0 0 0 0 0 0 0 0 81 2 462 63 220 44 0 50 0 0 471 0 83 1 471 1 81 1 4
2 81 117 36 472 0 0 0 0 70 43 0 4 T36 0 0 4 20 1 473 473 13 45 17 0 36 0 474 0 0
 475 0 53 46 34 0 474 0 0 0 --221709065016539e-31 -.003175 -583238038093927e-33
 .000915136422466876 0 0 1 -698296267768627e-29 -1 0 19 47 21 0 36 475 0 476 V0
 19 475 16 0 36 0 47 45 S0 13 476 20 0 0 0 0 0 0 47 474 14 474 31 477 ?0 0 0 45
 46 -0 0 0 0 476 81 1 477 80 156 474 478 0 0 0 479 81 1 478 75 192 474 0 477 0 0
 480 82 1 479 -2013724537 83 3 480 .752941176470588 .752941176470588 .7529411764
70588 74 20 473 4 0 0 472 478 477 42 0 0 0 0 0 0 0 0 0 0 0 0 0 0 0 0 81 2 472 63
 220 36 0 42 0 0 481 0 83 1 481 1 81 1 34 81 117 28 482 0 0 0 0 70 35 0 4 T28 0
 0 4 20 1 483 483 13 37 17 0 28 0 484 0 0 485 0 53 38 34 0 484 0 0 0 --.00186621
8176028625 -.00256862895714044 -583238038093927e-33 .000915136422466876 0 0 1 -.
58778525229248 -.809016994374942 0 19 39 21 0 28 485 0 486 V0 19 485 16 0 28 0 3
9 37 S0 13 486 20 0 0 0 0 0 0 39 484 14 484 31 487 ?0 0 0 37 38 -0 0 0 0 486 81
 1 487 80 156 484 488 0 0 0 489 81 1 488 75 192 484 0 487 0 0 490 82 1 489 -2012
348281 83 3 490 .752941176470588 .752941176470588 .752941176470588 74 20 483 4 0
 0 482 488 487 34 0 0 0 0 0 0 0 0 0 0 0 0 0 0 0 0 81 2 482 63 220 28 0 34 0 0 49
1 0 83 1 491 1 81 1 26 81 117 20 492 0 0 0 0 70 27 0 4 T20 0 0 4 20 1 493 493 13
 29 17 0 20 0 494 0 0 495 0 53 30 34 0 494 0 0 0 --.00301960443923712 -.00098112
8957140429 -583238038093927e-33 .000915136422466876 0 0 1 -.951056516295157 -.30
90169943749385 0 19 31 21 0 20 495 0 496 V0 19 495 16 0 20 0 31 29 S0 13 496 20
 0 0 0 0 0 0 31 494 14 494 31 497 ?0 0 0 29 30 -0 0 0 0 496 81 1 497 80 156 494
 498 0 0 0 499 81 1 498 75 192 494 0 497 0 0 500 82 1 499 -2010972025 83 3 500 .
752941176470588 .752941176470588 .752941176470588 74 20 493 4 0 0 492 498 497 26
 0 0 0 0 0 0 0 0 0 0 0 0 0 0 0 0 81 2 492 63 220 20 0 26 0 0 501 0 83 1 501 1 81
 1 18 81 117 12 502 0 0 0 0 70 19 0 4 T12 0 0 4 20 1 503 503 13 21 17 0 12 0 504
 0 0 505 0 53 22 34 0 504 0 0 0 --.0030196044392371 .000981128957140492 -5832380
38093927e-33 .000915136422466876 0 0 1 -.95105651629515 .309016994374958 0 19 23
 21 0 12 505 0 506 V0 19 505 16 0 12 0 23 21 S0 13 506 20 0 0 0 0 0 0 23 504 14
 504 31 507 ?0 0 0 21 22 -0 0 0 0 506 81 1 507 80 156 504 508 0 0 0 509 81 1 508
 75 192 504 0 507 0 0 510 82 1 509 -2009595769 83 3 510 .752941176470588 .752941
176470588 .752941176470588 74 20 503 4 0 0 502 508 507 18 0 0 0 0 0 0 0 0 0 0 0
 0 0 0 0 0 81 2 502 63 220 12 0 18 0 0 511 0 83 1 511 1 81 1 10 81 117 7 512 0 0
 0 0 70 11 0 4 T7 0 0 4 20 1 513 513 13 13 17 0 7 0 514 0 0 515 0 53 14 34 0 514
 0 0 0 --.00186621817602857 .00256862895714048 -583238038093927e-33 .00091513642
2466876 0 0 1 -.587785252292463 .809016994374955 0 19 15 21 0 7 515 0 516 V0 19
 515 16 0 7 0 15 13 S0 13 516 20 0 0 0 0 0 0 15 514 14 514 31 517 ?0 0 0 13 14 -
0 0 0 0 516 81 1 517 80 156 514 518 0 0 0 519 81 1 518 75 192 514 0 517 0 0 520
 82 1 519 -2008219513 83 3 520 .752941176470588 .752941176470588 .75294117647058
8 74 20 513 4 0 0 512 518 517 10 0 0 0 0 0 0 0 0 0 0 0 0 0 0 0 0 81 2 512 63 220
 7 0 10 0 0 521 0 83 1 521 1 74 20 6 1 0 0 2 0 0 0 0 0 0 0 0 0 0 0 0 0 0 0 0 0 0
 0 80 2 5 522 523 9000 0 0 0 0 3 5 0 0 0 TFFFFFFFFFFFFF9 1 79 18 523 MULTI_BODY_
ID_20011 0 
