**ABCDEFGHIJKLMNOPQRSTUVWXYZabcdefghijklmnopqrstuvwxyz**************************
**PARASOLID !"#$%&'()*+,-./:;<=>?@[\]^_`{|}~0123456789**************************
**PART1;
MC=AMD64;
MC_MODEL=Intel64 Family 6 Model 158 Stepping 9, GenuineIntel;
MC_ID=unknown;
OS=Windows_NT;
OS_RELEASE=unknown;
FRU=Parasolid Version 30.0, build 298, 12-15-2017;
APPL=SOLIDWORKS 2018-2018134;
SITE=;
USER=unknown;
FORMAT=text;
GUISE=transmit;
KEY=bearing fixture;
FILE=bearing fixture.x_t;
DATE=Fri Oct 19 14:40:02 2018;
**PART2;
SCH=SCH_3000298_30000;
USFLD_SIZE=0;
**PART3;
**END_OF_HEADER*****************************************************************
T51 : TRANSMIT FILE created by modeller version 300029823 SCH_3000298_30000_1300
6205 0 12 33 CCCCCCI4 mesh1006 0 I8 polyline1008 0 CCCCCCCDI5 owner1040 0 CCCCCC
I13 boundary_mesh1006 0 I17 boundary_polyline1008 0 CCCA16 index_map_offset0 0 1
 dA9 index_map82 0 A17 node_id_index_map82 0 A20 schema_embedding_map82 0 A5 chi
ld12 0 A14 lowest_node_id0 0 1 dZ1 600 0 2 0 0 0 0 0 0 1e3 1e-8 0 3 0 1 0 1 1 4
 5 6 7 0 0 8 9 10 0 0 0 0 0 0 70 11 CI9 list_type0 0 1 uI10 notransmit0 0 1 lCCC
DCCDI12 finger_index0 0 1 dI12 finger_block1012 0 CZ2 0 4 T1 0 0 2 20 1 11 11 13
 255 4 29 0 1 0 12 0 0 13 0 51 255 5 28 0 14 15 0 0 -0 0 .0045 0 0 -1 .006370055
28205707 -1 0 0 31 255 6 445 0 9 16 0 0 +0 0 2e-4 0 0 1 1 0 0 .00477 29 255 7 23
3 0 10 17 0 .00637005528205708 -.05737 0 19 8 CCCCCCCA5 owner12 0 Z8 7 0 1 13 0
 18 V0 16 255 9 442 0 ?19 0 20 6 0 0 1 18 255 10 231 0 21 0 22 7 ?1 17 255 21 0
 23 24 25 10 26 27 0 28 +18 22 220 0 24 10 29 17 ?1 17 24 0 23 30 21 22 28 31 0
 32 +18 29 100 0 30 22 33 34 ?1 29 17 222 0 22 34 7 -.00637005528205707 -.05737
 0 29 34 102 0 29 35 17 -.00637005528205707 0 0 29 35 97 0 33 36 34 -.0063700552
8205707 0 .0045 18 33 95 0 37 29 38 35 ?1 29 36 94 0 38 39 35 .00637005528205707
 900300182585503e-33 .0045 18 38 93 0 40 33 41 36 ?1 29 39 195 0 41 42 36 .00637
005528205707 -319611721250523e-38 0 18 41 142 0 25 38 43 39 ?1 29 42 395 0 43 44
 39 -.00637005528205707 -.05737 .0045 18 43 310 0 45 41 46 42 ?1 29 44 401 0 46
 47 42 .00637005528205707 -.05737 .0045 18 46 301 0 48 43 49 44 ?1 29 47 403 0 4
9 50 44 -.00637005528205707 -.06137 -.0055 18 49 300 0 51 46 52 47 ?1 29 50 404
 0 52 53 47 -.00637005528205707 -.05737 -.0055 18 52 305 0 54 49 55 50 ?1 29 53
 405 0 55 56 50 .00637005528205707 -.05737 -.0055 18 55 304 0 57 52 58 53 ?1 29
 56 406 0 58 59 53 .00637005528205708 -.06137 -.0055 18 58 306 0 60 55 61 56 ?1
 29 59 407 0 61 62 56 -.00637005528205707 -.06137 .01 18 61 309 0 63 58 64 59 ?1
 29 62 408 0 64 65 59 -.00637005528205707 -.05737 .01 18 64 311 0 66 61 67 62 ?1
 29 65 409 0 67 68 62 .00637005528205707 -.05737 .01 18 67 312 0 69 64 70 65 ?1
 29 68 410 0 70 0 65 .00637005528205708 -.06137 .01 18 70 308 0 71 67 0 68 ?1 17
 71 0 72 73 74 70 60 75 0 76 -15 255 72 163 0 51 77 0 17 73 0 72 51 71 61 78 79
 0 0 -17 74 0 72 71 51 58 80 81 0 0 +17 60 0 82 83 76 58 71 75 0 84 +16 75 115 0
 ?60 85 86 87 0 0 1 17 76 0 82 60 69 70 88 89 0 78 -15 82 238 0 90 91 0 17 69 0
 82 76 90 67 48 92 0 88 +17 88 0 93 94 78 67 76 89 0 95 +16 89 288 0 ?88 96 79 9
7 0 0 1 17 78 0 93 88 98 70 73 79 0 0 +15 93 366 0 78 99 0 17 98 0 93 78 94 61 1
00 101 0 73 +16 79 285 0 ?78 89 102 103 0 0 1 16 102 458 0 ?104 79 105 106 0 0 1
 30 255 103 394 0 79 107 97 0 +-.00637005528205707 -.06137 .01 1 0 0 31 107 487
 0 105 106 103 0 +0 0 0 0 0 1 1 0 0 .00377 30 97 393 0 89 103 108 0 +.0063700552
8205708 -.06137 .01 -238524477946811e-29 1 0 30 108 392 0 96 97 109 0 +.00637005
528205707 -.05737 .01 -1 0 0 16 96 291 0 ?94 101 89 108 0 0 1 30 109 391 0 101 1
08 110 0 +-.00637005528205707 -.05737 .01 0 -1 0 16 101 294 0 ?98 81 96 109 0 0
 1 30 110 390 0 81 109 111 0 +-.00637005528205707 -.06137 -.0055 1 0 0 16 81 255
 0 ?74 112 101 110 0 0 1 30 111 389 0 112 110 113 0 +.00637005528205708 -.06137
 -.0055 -238524477946811e-29 1 0 16 112 273 0 ?83 114 81 111 0 0 1 30 113 388 0
 114 111 115 0 +.00637005528205707 -.05737 -.0055 -1 0 0 16 114 261 0 ?116 117 1
12 113 0 0 1 30 115 387 0 117 113 118 0 +-.00637005528205707 -.05737 -.0055 0 -1
 0 16 117 267 0 ?119 92 114 115 0 0 1 30 118 385 0 120 115 121 0 +-.006370055282
05707 -.05737 -.0055 0 0 1 16 120 264 0 ?122 31 123 118 123 123 1 30 121 384 0 1
24 118 125 0 +.00637005528205707 -.05737 -.0055 0 0 1 16 124 276 0 ?126 123 92 1
21 92 92 1 30 125 378 0 31 121 127 0 +0 -.05737 0 -1 0 0 16 31 259 0 ?24 128 120
 125 0 0 1 30 127 377 0 128 125 129 0 +0 -.05737 .0045 -1 0 0 16 128 281 0 ?45 2
7 31 127 0 0 1 30 129 191 0 130 127 131 0 +.00637005528205707 900300182585503e-3
3 .0045 141333182008865e-30 -1 0 16 130 112 0 ?90 86 132 129 0 0 1 30 131 189 0
 86 129 133 0 +-.00637005528205707 0 .0045 0 1 0 16 86 224 0 ?37 75 130 131 0 0
 1 30 133 187 0 27 131 134 0 +.00637005528205707 900300182585503e-33 0 141333182
008865e-30 -1 0 16 27 131 0 ?21 132 128 133 0 0 1 30 134 185 0 132 133 87 0 +-.0
0637005528205707 0 0 0 1 0 16 132 221 0 ?30 130 27 134 0 0 1 30 87 183 0 75 134
 135 0 +.00637005528205708 -.06137 .0045 0 0 -1 30 135 182 0 85 87 136 0 +-.0063
7005528205707 -.06137 .0045 0 0 -1 16 85 127 0 ?51 137 75 135 0 0 1 30 136 181 0
 137 135 138 0 +-.00637005528205707 0 .0045 0 0 -1 16 137 123 0 ?139 140 85 136
 0 0 1 30 138 180 0 140 136 141 0 +.00637005528205707 -319611721250523e-38 .0045
 0 0 -1 16 140 119 0 ?142 143 137 138 0 0 1 31 141 72 0 143 138 144 0 +0 0 .0045
 0 0 1 1 0 0 .00477 16 143 52 0 ?145 146 140 141 0 0 1 31 144 5 0 20 141 16 0 +0
 0 .0045 0 0 1 1 0 0 .00637005528205707 16 20 4 0 ?147 9 146 144 0 0 1 31 16 23
 0 146 144 6 0 +0 0 0 0 0 1 1 0 0 .00637005528205707 16 146 18 0 ?148 20 143 16
 0 0 1 17 148 0 149 150 142 29 25 146 0 139 +15 149 24 0 40 14 0 17 150 0 149 40
 148 33 139 137 0 147 -17 142 0 149 148 40 41 151 140 0 26 +17 25 0 23 21 30 41
 148 146 0 142 -17 139 0 152 32 37 29 150 137 0 0 +15 152 227 0 32 153 0 17 32 0
 152 54 139 22 30 132 0 122 -17 37 0 152 139 154 33 155 86 0 150 +17 154 0 152 3
7 100 43 66 123 0 155 -17 155 0 156 157 147 43 37 86 0 0 -15 156 248 0 157 12 15
8 17 157 0 156 159 155 46 45 128 0 90 -17 147 0 156 155 159 33 40 20 0 0 +17 159
 0 156 147 157 38 90 130 0 0 -17 40 0 149 142 150 38 147 20 0 151 -17 151 0 82 9
0 26 38 142 140 0 159 -17 90 0 82 69 151 46 159 130 0 0 +17 26 0 82 151 126 41 2
1 27 0 0 -17 126 0 82 26 83 10 57 124 0 0 +17 83 0 82 126 60 55 84 112 0 0 +17 5
7 0 160 116 28 55 126 124 0 161 -15 160 328 0 28 162 0 17 116 0 160 122 57 52 16
1 114 0 163 +17 28 0 160 57 122 10 24 31 0 126 -17 161 0 164 84 163 55 116 114 0
 83 -15 164 363 0 80 165 0 17 84 0 164 80 161 58 83 112 0 74 -17 163 0 164 161 8
0 52 119 117 0 0 -17 80 0 164 163 84 49 74 81 0 119 -17 119 0 152 63 54 49 163 1
17 0 0 +17 63 0 152 100 119 61 51 85 0 98 -17 54 0 152 119 32 52 122 120 0 116 -
17 122 0 160 28 116 22 54 120 0 0 +17 100 0 152 154 63 64 98 101 0 0 -17 51 0 72
 74 73 49 63 85 0 80 +14 255 165 361 166 ?162 77 164 4 167 -0 0 162 77 18 81 255
 1 166 588 168 165 169 0 0 170 171 14 162 325 170 ?172 165 160 4 173 +172 172 17
2 165 18 14 77 160 174 ?165 153 72 4 175 +0 0 165 153 18 50 255 167 373 0 165 17
6 173 0 +0 0 -.0055 0 0 1 1 0 0 13 18 8 0 0 0 0 0 0 8 12 14 12 46 177 ?178 0 156
 4 179 +0 0 178 0 18 81 1 177 591 168 12 180 0 174 181 182 14 178 40 181 ?14 12
 23 4 15 -0 0 14 12 18 50 179 2 0 12 183 15 0 +0 0 .0045 0 0 1 1 0 0 51 183 68 0
 184 185 179 0 -0 0 .0045 0 0 -1 .00477 -1 0 0 50 15 22 0 178 179 5 0 +0 0 0 0 0
 1 1 0 0 14 184 55 186 ?91 14 187 4 183 +0 0 91 14 18 50 185 174 0 91 188 183 0
 +.00637005528205707 900300182585503e-33 .0045 1 141333182008865e-30 0 -14133318
2008865e-30 1 0 14 91 148 189 ?153 184 82 4 185 +0 0 153 184 18 50 188 176 0 153
 175 185 0 +-.00637005528205707 0 .0045 -1 0 0 0 0 1 14 153 156 190 ?77 91 152 4
 188 +0 0 77 91 18 50 175 177 0 77 173 188 0 +0 -.06137 .0045 0 -1 0 0 0 -1 50 1
73 371 0 172 167 175 0 +.00637005528205707 -.05737 -.0055 0 1 0 0 0 1 14 172 353
 191 ?99 162 192 4 173 +162 162 99 162 18 81 1 191 596 168 172 193 0 190 194 195
 14 99 364 194 ?196 172 93 4 176 +0 0 196 172 18 15 192 356 0 48 172 0 17 48 0 1
92 45 95 46 69 92 0 157 -17 45 0 192 66 48 43 157 128 0 154 +17 95 0 192 48 66 6
7 94 96 0 0 -16 92 284 0 ?69 124 117 121 124 124 1 17 66 0 192 95 45 64 154 123
 0 94 +17 94 0 93 98 88 64 95 96 0 100 +16 123 282 0 ?66 120 124 118 120 120 1 8
1 1 194 597 168 99 197 0 191 198 199 14 196 461 198 ?200 99 201 4 202 +0 0 200 9
9 18 50 176 374 0 99 202 167 0 +0 0 .01 0 0 1 1 0 0 50 202 483 0 196 203 176 0 +
0 0 2e-4 0 0 1 1 0 0 51 203 484 0 200 0 202 0 -0 0 2e-4 0 0 -1 .00377 -1 0 0 14
 200 474 204 ?0 196 205 4 203 +0 0 0 196 18 81 1 204 599 168 200 206 0 198 207 2
08 15 205 477 0 104 200 209 17 104 0 205 104 104 0 210 102 0 0 +15 209 478 0 211
 200 0 17 211 0 209 211 211 0 212 105 0 0 -17 212 0 213 212 212 0 211 105 0 0 +1
6 105 452 0 ?212 102 0 107 0 0 1 15 213 468 0 212 178 0 17 210 0 214 210 210 0 1
04 102 0 0 -15 214 464 0 210 196 0 80 255 1 168 215 216 9000 1 1 1 1 1 1 1 1 0 F
FFFTFTFFFFFFF1 81 1 206 553 217 200 0 204 218 0 219 81 1 198 598 168 196 218 0 1
94 204 220 81 1 207 600 168 14 221 0 204 0 222 82 255 1 208 -1099693887 14 14 25
 207 ?184 178 149 4 5 -0 0 184 178 18 81 1 221 543 217 14 0 207 223 224 225 82 1
 222 -972422979 80 1 217 0 226 8001 0 0 0 0 3 5 0 0 0 FFFFTFTFFFFFFF2 81 1 223 5
42 217 178 0 181 180 221 227 81 1 224 544 217 184 0 186 221 228 229 83 255 3 225
 .792156862745098 .819607843137255 .933333333333333 81 1 186 593 168 184 224 0 1
81 189 230 81 1 228 545 217 91 0 189 224 231 232 83 3 229 .792156862745098 .8196
07843137255 .933333333333333 81 1 189 594 168 91 228 0 186 190 233 81 1 231 546
 217 153 0 190 228 234 235 83 3 232 .792156862745098 .819607843137255 .933333333
333333 81 1 190 595 168 153 231 0 189 191 236 81 1 234 547 217 77 0 174 231 169
 237 83 3 235 .792156862745098 .819607843137255 .933333333333333 81 1 174 590 16
8 77 234 0 170 177 238 81 1 169 548 217 165 0 166 234 239 240 83 3 237 .79215686
2745098 .819607843137255 .933333333333333 81 1 239 549 217 162 0 170 169 193 241
 83 3 240 .792156862745098 .819607843137255 .933333333333333 81 1 170 589 168 16
2 239 0 166 174 242 81 1 193 550 217 172 0 191 239 197 243 83 3 241 .79215686274
5098 .819607843137255 .933333333333333 81 1 197 551 217 99 0 194 193 218 244 83
 3 243 .792156862745098 .819607843137255 .933333333333333 81 1 218 552 217 196 0
 198 197 206 245 83 3 244 .792156862745098 .819607843137255 .933333333333333 83
 3 245 .792156862745098 .819607843137255 .933333333333333 82 1 242 -1114505025 8
2 1 238 -1169882945 82 1 236 -1169751873 82 1 233 -1169293121 81 1 181 592 168 1
78 223 0 177 186 246 82 1 230 -976551743 82 1 246 -970719039 81 1 180 541 217 12
 0 177 0 223 247 83 3 227 .792156862745098 .819607843137255 .933333333333333 83
 3 247 .792156862745098 .819607843137255 .933333333333333 79 255 15 226 SDL/TYSA
_COLOUR82 1 220 -1093336895 83 3 219 .792156862745098 .819607843137255 .93333333
3333333 79 14 216 SWEntUnchanged15 201 463 0 19 196 214 17 19 0 201 19 19 0 248
 9 0 0 +17 248 0 187 248 248 0 19 9 0 0 -15 187 444 0 248 184 249 15 249 58 0 14
5 184 0 17 145 0 249 145 145 0 250 143 0 0 +17 250 0 158 250 250 0 145 143 0 0 -
15 158 43 0 250 12 0 82 1 199 -1123286849 82 1 195 -1132134209 15 23 17 0 21 178
 213 82 1 182 -970194753 82 1 171 -1138818881 17 30 0 23 25 24 29 32 132 0 148 +
31 106 488 0 102 0 107 0 +0 0 2e-4 0 0 1 1 0 0 .00377 19 13 30 0 1 0 8 4 S0 74 4
 CI16 index_map_offset0 0 1 dCCZ20 11 2 0 0 207 206 0 0 0 0 0 0 0 0 0 0 0 0 0 0
 0 0 0 0 1 0 
