**ABCDEFGHIJKLMNOPQRSTUVWXYZabcdefghijklmnopqrstuvwxyz**************************
**PARASOLID !"#$%&'()*+,-./:;<=>?@[\]^_`{|}~0123456789**************************
**PART1;
MC=AMD64;
MC_MODEL=Intel64 Family 6 Model 158 Stepping 9, GenuineIntel;
MC_ID=unknown;
OS=Windows_NT;
OS_RELEASE=unknown;
FRU=Parasolid Version 30.0, build 298, 12-15-2017;
APPL=SOLIDWORKS 2018-2018134;
SITE=;
USER=unknown;
FORMAT=text;
GUISE=transmit;
KEY=HoldingFixture;
FILE=HoldingFixture.x_t;
DATE=Fri Oct 19 14:39:32 2018;
**PART2;
SCH=SCH_3000298_30000;
USFLD_SIZE=0;
**PART3;
**END_OF_HEADER*****************************************************************
T51 : TRANSMIT FILE created by modeller version 300029823 SCH_3000298_30000_1300
6205 0 12 33 CCCCCCI4 mesh1006 0 I8 polyline1008 0 CCCCCCCDI5 owner1040 0 CCCCCC
I13 boundary_mesh1006 0 I17 boundary_polyline1008 0 CCCA16 index_map_offset0 0 1
 dA9 index_map82 0 A17 node_id_index_map82 0 A20 schema_embedding_map82 0 A5 chi
ld12 0 A14 lowest_node_id0 0 1 dZ1 586 2 3 0 0 0 0 0 0 1e3 1e-8 0 4 0 1 0 1 1 5
 6 7 8 0 0 9 10 11 0 0 0 0 0 0 81 255 2 2 468 12 1 0 0 0 0 13 0 70 11 CI9 list_t
ype0 0 1 uI10 notransmit0 0 1 lCCCDCCDI12 finger_index0 0 1 dI12 finger_block101
2 0 CZ3 0 4 T1 0 0 3 20 1 14 14 13 255 5 94 0 1 0 15 0 0 16 0 50 255 6 89 0 15 1
7 0 0 +.0621258493643405 0 .005 -1 -693889390390723e-31 0 693889390390723e-31 -1
 0 30 255 7 239 0 10 18 0 0 +0 .096 0 -1 0 0 29 255 8 236 0 11 19 0 .13712584936
43404 .096 0 19 8 CCCCCCCA5 owner12 0 Z9 28 0 1 16 0 20 V0 16 255 10 237 0 ?21 0
 22 7 0 0 1 18 255 11 234 0 23 0 24 8 ?1 17 255 23 0 25 26 27 11 21 10 0 28 -18
 24 231 0 27 11 29 19 ?1 17 27 0 25 23 30 24 31 32 0 21 +18 29 25 0 33 24 34 35
 ?1 29 19 233 0 24 36 8 .0621258493643405 .096 0 29 36 70 0 37 38 19 .0621258493
643405 0 0 18 37 61 0 39 34 40 36 ?1 29 38 71 0 40 35 36 .1371258493643404 -3081
48791101958e-47 0 18 40 62 0 26 37 41 38 ?1 29 35 27 0 29 42 38 .062125849364340
5 0 .005 29 42 24 0 34 43 35 .1371258493643404 -308148791101958e-47 .005 18 34 2
2 0 44 29 37 42 ?1 29 43 406 0 41 45 42 .1371258493643404 .096 .005 18 41 312 0
 46 40 47 43 ?1 29 45 410 0 47 48 43 .0621258493643405 .096 .005 18 47 314 0 49
 41 50 45 ?1 29 48 412 0 50 51 45 .1371258493643404 .1 -.009 18 50 317 0 52 47 5
3 48 ?1 29 51 413 0 53 54 48 .1371258493643404 .096 -.009 18 53 319 0 55 50 56 5
1 ?1 29 54 414 0 56 57 51 .0621258493643405 .096 -.009 18 56 321 0 58 53 59 54 ?
1 29 57 415 0 59 60 54 .0621258493643405 .1 -.009 18 59 322 0 61 56 62 57 ?1 29
 60 416 0 62 63 57 .1371258493643404 .1 .015 18 62 311 0 64 59 65 60 ?1 29 63 41
7 0 65 66 60 .1371258493643404 .096 .015 18 65 313 0 67 62 68 63 ?1 29 66 418 0
 68 69 63 .0621258493643405 .096 .015 18 68 315 0 70 65 71 66 ?1 29 69 419 0 71
 0 66 .0621258493643405 .1 .015 18 71 308 0 72 68 0 69 ?1 17 72 0 73 74 75 71 61
 76 0 77 -15 255 73 82 0 52 78 0 17 74 0 73 52 72 62 79 80 0 0 -17 75 0 73 72 52
 59 81 82 0 0 +17 61 0 83 84 77 59 72 76 0 85 +16 76 77 0 ?61 86 87 18 0 0 1 17
 77 0 83 61 70 71 88 89 0 79 -15 83 258 0 90 15 0 17 70 0 83 77 90 68 49 91 0 88
 +17 88 0 92 93 79 68 77 89 0 94 +16 89 298 0 ?88 95 80 96 0 0 1 17 79 0 92 88 9
7 71 74 80 0 0 +15 92 376 0 79 98 0 17 97 0 92 79 93 62 99 100 0 74 +16 80 295 0
 ?79 89 0 101 0 0 1 30 101 403 0 80 0 96 0 +.1371258493643404 .1 .015 -1 0 0 30
 96 402 0 89 101 102 0 +.0621258493643405 .1 .015 0 -1 0 30 102 401 0 95 96 103
 0 +.0621258493643405 .096 .015 1 0 0 16 95 301 0 ?93 100 89 102 0 0 1 30 103 40
0 0 100 102 104 0 +.1371258493643404 .096 .015 0 1 0 16 100 304 0 ?97 82 95 103
 0 0 1 30 104 399 0 82 103 105 0 +.1371258493643404 .1 -.009 -1 0 0 16 82 277 0
 ?75 106 100 104 0 0 1 30 105 398 0 106 104 107 0 +.0621258493643405 .1 -.009 0
 -1 0 16 106 292 0 ?84 108 82 105 0 0 1 30 107 397 0 108 105 109 0 +.06212584936
43405 .096 -.009 1 0 0 16 108 287 0 ?110 111 106 107 0 0 1 30 109 396 0 111 107
 112 0 +.1371258493643404 .096 -.009 0 1 0 16 111 282 0 ?113 91 108 109 0 0 1 30
 112 394 0 114 109 115 0 +.1371258493643404 .096 -.009 0 0 1 16 114 285 0 ?116 1
17 118 112 118 118 1 30 115 393 0 119 112 120 0 +.0621258493643405 .096 -.009 0
 0 1 16 119 290 0 ?121 118 91 115 91 91 1 30 120 389 0 117 115 122 0 +0 .096 .00
5 -1 0 0 16 117 271 0 ?123 124 114 120 0 0 1 31 255 122 216 0 125 120 126 0 +.09
82196206034018 .03862760363385575 0 0 0 1 1 0 0 .013 16 125 193 0 ?127 128 124 1
22 0 0 1 31 126 215 0 124 122 129 0 +.0982196206034018 .03862760363385575 .015 0
 0 1 1 0 0 .013 16 124 196 0 ?130 125 117 126 0 0 1 31 129 166 0 128 126 131 0 +
.0982196206034018 .03862760363385575 .015 0 0 1 1 0 0 .0254 16 128 146 0 ?132 32
 125 129 0 0 1 31 131 165 0 22 129 133 0 +.0982196206034018 .03862760363385575 .
005 0 0 1 1 0 0 .0254 16 22 137 0 ?134 10 135 131 0 0 1 30 133 5 0 136 131 137 0
 +.0621258493643405 0 .005 -693889390390723e-31 1 0 16 136 4 0 ?90 138 139 133 0
 0 1 30 137 11 0 138 133 140 0 +.1371258493643404 .1 .005 0 -1 0 16 138 246 0 ?4
4 87 136 137 0 0 1 30 140 14 0 87 137 141 0 +.0621258493643405 0 .005 1 -4108650
548026105e-47 0 16 87 13 0 ?142 76 138 140 0 0 1 30 141 69 0 32 140 143 0 +.0621
258493643405 0 0 -693889390390723e-31 1 0 16 32 57 0 ?27 144 128 141 0 0 1 30 14
3 67 0 144 141 145 0 +.1371258493643404 .1 0 0 -1 0 16 144 235 0 ?26 139 32 143
 0 0 1 30 145 66 0 139 143 146 0 +.0621258493643405 0 0 1 -4108650548026105e-47
 0 16 139 45 0 ?147 136 144 145 0 0 1 30 146 90 0 135 145 148 0 +.06212584936434
05 0 .005 0 0 -1 16 135 74 0 ?39 22 149 146 0 0 1 30 148 91 0 149 146 150 0 +.13
71258493643404 -308148791101958e-47 .005 0 0 -1 16 149 75 0 ?151 135 86 148 0 0
 1 30 150 92 0 86 148 18 0 +.1371258493643404 .1 .005 0 0 -1 16 86 76 0 ?52 149
 76 150 0 0 1 30 18 93 0 76 150 7 0 +.0621258493643405 .1 .005 0 0 -1 17 52 0 73
 75 74 50 64 86 0 81 +17 64 0 152 99 113 62 52 86 0 97 -17 81 0 153 154 85 50 75
 82 0 113 -15 153 373 0 81 155 0 17 154 0 153 156 81 53 113 111 0 0 -17 85 0 153
 81 156 59 84 106 0 75 -17 113 0 152 64 55 50 154 111 0 0 +15 152 253 0 28 157 0
 17 55 0 152 113 28 53 116 114 0 110 -17 28 0 152 55 151 11 26 144 0 116 -17 116
 0 158 21 110 11 55 114 0 0 +17 110 0 158 116 58 53 156 108 0 154 +15 158 366 0
 116 159 0 17 58 0 158 110 21 56 121 119 0 156 -17 156 0 153 85 154 56 110 108 0
 84 -17 84 0 83 121 61 56 85 106 0 0 +17 121 0 83 31 84 24 58 119 0 0 +17 31 0 8
3 33 121 37 27 32 0 0 -17 33 0 83 90 31 29 39 135 0 160 -17 90 0 83 70 33 47 161
 136 0 0 +17 39 0 162 147 160 37 33 135 0 30 +17 160 0 162 39 163 29 142 87 0 16
1 -15 162 78 0 147 164 0 17 163 0 162 160 147 34 151 149 0 0 -17 142 0 165 166 1
61 34 160 87 0 163 +17 161 0 165 142 123 29 90 136 0 0 -15 165 3 0 166 167 0 17
 123 0 165 161 166 47 46 117 0 90 +17 166 0 165 123 142 41 44 138 0 0 -17 46 0 1
68 67 49 41 123 117 0 169 -15 168 342 0 46 170 0 17 67 0 168 94 46 65 169 118 0
 93 +17 49 0 168 46 94 47 70 91 0 123 -17 169 0 152 44 99 41 67 118 0 166 -17 44
 0 152 151 169 34 166 138 0 142 +17 99 0 152 169 64 65 97 100 0 0 -16 118 269 0
 ?67 114 119 112 114 114 1 17 151 0 152 28 44 40 163 149 0 147 +17 147 0 162 163
 39 40 30 139 0 0 +17 30 0 25 27 26 37 147 139 0 31 -15 25 238 0 23 171 172 17 2
6 0 25 30 23 40 28 144 0 151 +14 255 171 43 173 ?174 167 25 5 175 +0 0 174 167 2
0 15 172 188 0 127 171 0 17 127 0 172 127 127 0 176 125 0 0 +17 176 0 177 176 17
6 0 127 125 0 0 -15 177 202 0 176 178 179 14 178 199 180 ?155 181 177 5 182 -0 0
 155 181 20 15 179 203 0 130 178 0 17 130 0 179 130 130 0 183 124 0 0 +17 183 0
 184 183 183 0 130 124 0 0 -15 184 182 0 183 181 185 14 181 154 186 ?178 174 184
 5 187 +0 0 178 174 20 15 185 156 0 132 181 0 17 132 0 185 132 132 0 188 128 0 0
 +17 188 0 189 188 188 0 132 128 0 0 -15 189 152 0 188 174 190 14 174 149 191 ?1
81 171 189 5 192 -0 0 181 171 20 15 190 153 0 134 174 0 17 134 0 190 134 134 0 1
93 22 0 0 +17 193 0 194 193 193 0 134 22 0 0 -15 194 139 0 193 167 165 14 167 1
 195 ?171 78 194 5 196 -0 0 171 78 20 81 1 195 578 197 167 198 0 191 199 200 14
 78 83 199 ?167 157 73 5 17 +0 0 167 157 20 50 196 2 0 167 192 175 0 +0 0 .005 0
 0 -1 -1 0 0 13 20 29 0 0 0 0 0 0 9 15 14 15 85 201 ?164 0 83 5 6 +0 0 164 0 20
 81 1 201 580 197 15 202 0 199 203 204 14 164 79 203 ?157 15 162 5 205 -0 0 157
 15 20 81 1 203 581 197 164 206 0 201 207 208 14 157 81 207 ?78 164 152 5 209 +0
 0 78 164 20 50 205 86 0 164 175 209 0 +.0621258493643405 0 .005 410865054802610
5e-47 1 0 -1 4108650548026105e-47 0 50 175 65 0 171 196 205 0 +0 0 0 0 0 -1 -1 0
 0 50 209 87 0 157 205 17 0 +.1371258493643404 .1 .005 1 0 0 0 0 -1 50 17 88 0 7
8 209 6 0 +.0621258493643405 .1 .005 0 1 0 0 0 1 81 1 207 582 197 157 210 0 203
 211 212 80 255 1 197 213 214 9000 1 1 1 1 1 1 1 1 0 FFFFTFTFFFFFFF1 81 1 210 53
2 215 157 0 207 206 216 217 81 1 211 583 197 155 218 0 207 219 220 82 255 1 212
 -959839796 14 155 371 211 ?159 178 153 5 221 -0 0 159 178 20 81 1 218 539 215 1
55 0 211 222 223 224 81 1 219 584 197 159 223 0 211 225 226 82 1 220 583401932 1
4 159 363 219 ?170 155 158 5 227 +170 170 170 155 20 81 1 223 540 215 159 0 219
 218 228 229 81 1 225 585 197 170 228 0 219 230 231 82 1 226 590086604 14 170 33
9 225 ?98 159 168 5 227 +159 159 98 159 20 81 1 228 541 215 170 0 225 223 232 23
3 81 1 230 586 197 98 232 0 225 0 234 82 1 231 606470604 14 98 374 230 ?0 170 92
 5 235 +0 0 0 170 20 81 1 232 542 215 98 0 230 228 0 236 82 1 234 598933964 80 1
 215 0 237 8001 0 0 0 0 3 5 0 0 0 FFFFTFTFFFFFFF2 83 255 3 236 .792156862745098
 .819607843137255 .933333333333333 79 255 15 237 SDL/TYSA_COLOUR50 235 384 0 98
 0 221 0 +0 0 .015 0 0 1 1 0 0 50 221 383 0 155 235 227 0 +0 0 -.009 0 0 1 1 0 0
 50 227 381 0 159 221 182 0 +.0621258493643405 .096 -.009 0 -1 0 0 0 -1 51 255 1
82 212 0 178 227 187 0 +.0982196206034018 .03862760363385575 0 0 0 1 .013 1 0 0
 50 187 164 0 181 182 192 0 +.0982196206034018 .03862760363385575 .015 0 0 1 1 0
 0 51 192 162 0 174 187 196 0 -.0982196206034018 .03862760363385575 .015 0 0 -1
 .0254 -1 0 0 83 3 233 .792156862745098 .819607843137255 .933333333333333 83 3 2
29 .792156862745098 .819607843137255 .933333333333333 81 1 222 538 215 178 0 180
 238 218 239 83 3 224 .792156862745098 .819607843137255 .933333333333333 81 1 18
0 575 197 178 222 0 173 186 240 81 1 238 537 215 181 0 186 241 222 242 83 3 239
 .792156862745098 .819607843137255 .933333333333333 81 1 186 576 197 181 238 0 1
80 191 243 81 1 241 536 215 174 0 191 244 238 245 83 3 242 .792156862745098 .819
607843137255 .933333333333333 81 1 191 577 197 174 241 0 186 195 246 81 1 244 53
5 215 171 0 173 198 241 247 83 3 245 .792156862745098 .819607843137255 .93333333
3333333 81 1 173 574 197 171 244 0 0 180 248 81 1 198 534 215 167 0 195 216 244
 249 83 3 247 .792156862745098 .819607843137255 .933333333333333 81 1 216 533 21
5 78 0 199 210 198 250 83 3 249 .792156862745098 .819607843137255 .9333333333333
33 81 1 199 579 197 78 216 0 195 201 251 83 3 250 .792156862745098 .819607843137
255 .933333333333333 82 1 251 -960298548 82 1 248 -961740340 82 1 246 -434241102
 82 1 243 -961084982 82 1 240 551944650 81 1 206 531 215 164 0 203 202 210 252 8
3 3 217 .792156862745098 .819607843137255 .933333333333333 81 1 202 530 215 15 0
 201 0 206 253 83 3 252 .792156862745098 .819607843137255 .933333333333333 83 3
 253 .792156862745098 .819607843137255 .933333333333333 79 14 214 SWEntUnchanged
82 1 208 -709426776 82 1 204 -960101940 82 1 200 -960429620 17 94 0 168 49 67 68
 93 95 0 0 -16 91 272 0 ?70 119 111 115 119 119 1 17 93 0 92 97 88 65 94 95 0 99
 +17 21 0 158 58 116 24 23 10 0 121 +19 16 95 0 1 0 9 5 S0 74 4 CI16 index_map_o
ffset0 0 1 dCCZ20 14 3 0 0 230 2 232 0 0 0 0 0 0 0 0 0 0 0 0 0 0 0 0 0 80 2 12 2
54 255 8004 0 0 0 0 3 5 0 0 0 FFTFFFFFFFFFFF2 3 83 1 13 1 79 16 255 SDL/TYSA_DEN
SITY1 0 
