**ABCDEFGHIJKLMNOPQRSTUVWXYZabcdefghijklmnopqrstuvwxyz**************************
**PARASOLID !"#$%&'()*+,-./:;<=>?@[\]^_`{|}~0123456789**************************
**PART1;
MC=AMD64;
MC_MODEL=Intel64 Family 6 Model 158 Stepping 9, GenuineIntel;
MC_ID=unknown;
OS=Windows_NT;
OS_RELEASE=unknown;
FRU=Parasolid Version 30.0, build 298, 12-15-2017;
APPL=SOLIDWORKS 2018-2018134;
SITE=;
USER=unknown;
FORMAT=text;
GUISE=transmit;
KEY=HoldingFixtureRight;
FILE=HoldingFixtureRight.x_t;
DATE=Fri Oct 19 14:42:01 2018;
**PART2;
SCH=SCH_3000298_30000;
USFLD_SIZE=0;
**PART3;
**END_OF_HEADER*****************************************************************
T51 : TRANSMIT FILE created by modeller version 300029823 SCH_3000298_30000_1300
6205 0 10 19 CCCCCCCI4 mesh1006 0 I8 polyline1008 0 CCCCCCCCCCZ1 5 2 3 0 0 0 0 0
 0 0 1e3 1e-8 0 0 0 1 0 1 4 81 255 2 2 5 5 1 0 0 0 0 0 0 70 11 CI9 list_type0 0
 1 uI10 notransmit0 0 1 lCCCDCCDI12 finger_index0 0 1 dI12 finger_block1012 0 CZ
3 0 4 T1 0 0 1 20 1 6 6 11 255 4 3 0 1 7 8 1 9 0 0 0 12 33 CCCCCCI4 mesh1006 0 I
8 polyline1008 0 CCCCCCCDI5 owner1040 0 CCCCCCI13 boundary_mesh1006 0 I17 bounda
ry_polyline1008 0 CCCA16 index_map_offset0 0 1 dA9 index_map82 0 A17 node_id_ind
ex_map82 0 A20 schema_embedding_map82 0 A5 child12 0 A14 lowest_node_id0 0 1 dZ7
 129 10 11 0 0 0 0 0 0 1e3 1e-8 4 12 0 1 0 1 1 13 14 15 0 0 0 16 17 0 0 0 0 0 0
 0 100 255 8 4 4 0 0 1 0 0 0 1 0 0 0 1 0 0 0 1 0 ?11 9 1 0 1 12 18 1 0 4 0 0 12
 12 507 19 20 0 0 0 0 0 0 1e3 1e-8 9 21 7 1 0 1 1 22 23 24 25 0 0 26 27 28 0 0 0
 0 0 0 100 18 2 9 0 0 1 0 0 0 1 0 0 0 1 0 0 0 1 0 ?81 1 19 507 29 12 30 0 0 0 0
 70 20 0 4 T12 0 0 4 20 1 31 31 13 255 22 94 0 12 0 32 0 0 33 0 50 255 23 89 0 3
2 34 0 0 +.0621258493643405 0 .008 -1 -693889390390723e-31 0 693889390390723e-31
 -1 0 31 255 24 374 0 35 36 0 0 +.0982196206034018 .03862760363385575 0 0 0 -1 -
1 0 0 .0185 29 255 25 149 0 28 37 0 .1371258493643404 .096 0 19 8 CCCCCCCA5 owne
r12 0 Z26 28 0 12 33 0 38 V0 16 255 27 150 0 ?39 0 40 36 0 0 12 18 255 28 147 0
 41 0 42 25 ?12 17 255 41 0 43 44 45 28 39 27 0 46 -18 42 144 0 45 28 47 37 ?12
 17 45 0 43 41 48 42 49 50 0 39 +18 47 25 0 51 42 52 53 ?12 29 37 146 0 42 54 25
 .0621258493643405 .096 0 29 54 70 0 55 56 37 .0621258493643405 0 0 18 55 61 0 5
7 52 58 54 ?12 29 56 71 0 58 53 54 .1371258493643404 -308148791101958e-47 0 18 5
8 62 0 44 55 59 56 ?12 29 53 27 0 47 60 56 .0621258493643405 0 .008 29 60 24 0 5
2 61 53 .1371258493643404 -308148791101958e-47 .008 18 52 22 0 62 47 55 60 ?12 2
9 61 319 0 59 63 60 .1371258493643404 .096 .008 18 59 225 0 64 58 65 61 ?12 29 6
3 323 0 65 66 61 .0621258493643405 .096 .008 18 65 227 0 67 59 68 63 ?12 29 66 3
25 0 68 69 63 .1371258493643404 .1 -.006 18 68 230 0 70 65 71 66 ?12 29 69 326 0
 71 72 66 .1371258493643404 .096 -.006 18 71 232 0 73 68 74 69 ?12 29 72 327 0 7
4 75 69 .0621258493643405 .096 -.006 18 74 234 0 76 71 77 72 ?12 29 75 328 0 77
 78 72 .0621258493643405 .1 -.006 18 77 235 0 79 74 80 75 ?12 29 78 329 0 80 81
 75 .1371258493643404 .1 .018 18 80 224 0 82 77 83 78 ?12 29 81 330 0 83 84 78 .
1371258493643404 .096 .018 18 83 226 0 85 80 86 81 ?12 29 84 331 0 86 87 81 .062
1258493643405 .096 .018 18 86 228 0 88 83 89 84 ?12 29 87 332 0 89 0 84 .0621258
493643405 .1 .018 18 89 221 0 90 86 0 87 ?12 17 90 0 91 92 93 89 79 94 0 95 -15
 255 91 82 0 70 96 0 17 92 0 91 70 90 80 97 98 0 0 -17 93 0 91 90 70 77 99 100 0
 0 +17 79 0 101 102 95 77 90 94 0 103 +16 94 77 0 ?79 104 105 106 0 0 12 17 95 0
 101 79 88 89 107 108 0 97 -15 101 171 0 109 32 0 17 88 0 101 95 109 86 67 110 0
 107 +17 107 0 111 112 97 86 95 108 0 113 +16 108 211 0 ?107 114 98 115 0 0 12 1
7 97 0 111 107 116 89 92 98 0 0 +15 111 289 0 97 117 0 17 116 0 111 97 112 80 11
8 119 0 92 +16 98 208 0 ?97 108 35 120 0 0 12 16 35 387 0 ?121 98 122 24 0 0 12
 30 255 120 316 0 98 123 115 0 +.1371258493643404 .1 .018 -1 0 0 31 123 412 0 12
2 0 120 0 +.0982196206034018 .03862760363385575 .008 0 0 1 1 0 0 .0185 30 115 31
5 0 108 120 124 0 +.0621258493643405 .1 .018 0 -1 0 30 124 314 0 114 115 125 0 +
.0621258493643405 .096 .018 1 0 0 16 114 214 0 ?112 119 108 124 0 0 12 30 125 31
3 0 119 124 126 0 +.1371258493643404 .096 .018 0 1 0 16 119 217 0 ?116 100 114 1
25 0 0 12 30 126 312 0 100 125 127 0 +.1371258493643404 .1 -.006 -1 0 0 16 100 1
90 0 ?93 128 119 126 0 0 12 30 127 311 0 128 126 129 0 +.0621258493643405 .1 -.0
06 0 -1 0 16 128 205 0 ?102 130 100 127 0 0 12 30 129 310 0 130 127 131 0 +.0621
258493643405 .096 -.006 1 0 0 16 130 200 0 ?132 133 128 129 0 0 12 30 131 309 0
 133 129 134 0 +.1371258493643404 .096 -.006 0 1 0 16 133 195 0 ?135 110 130 131
 0 0 12 30 134 307 0 136 131 137 0 +.1371258493643404 .096 -.006 0 0 1 16 136 19
8 0 ?138 139 140 134 140 140 12 30 137 306 0 141 134 142 0 +.0621258493643405 .0
96 -.006 0 0 1 16 141 203 0 ?143 140 110 137 110 110 12 30 142 302 0 139 137 144
 0 +0 .096 .008 -1 0 0 16 139 184 0 ?145 50 136 142 0 0 12 30 144 5 0 146 142 14
7 0 +.0621258493643405 0 .008 -693889390390723e-31 1 0 16 146 4 0 ?109 148 149 1
44 0 0 12 30 147 11 0 148 144 150 0 +.1371258493643404 .1 .008 0 -1 0 16 148 159
 0 ?62 105 146 147 0 0 12 30 150 14 0 105 147 151 0 +.0621258493643405 0 .008 1
 -4108650548026105e-47 0 16 105 13 0 ?152 94 148 150 0 0 12 30 151 69 0 50 150 1
53 0 +.0621258493643405 0 0 -693889390390723e-31 1 0 16 50 57 0 ?45 154 139 151
 0 0 12 30 153 67 0 154 151 155 0 +.1371258493643404 .1 0 0 -1 0 16 154 148 0 ?4
4 149 50 153 0 0 12 30 155 66 0 149 153 156 0 +.0621258493643405 0 0 1 -41086505
48026105e-47 0 16 149 45 0 ?157 146 154 155 0 0 12 30 156 90 0 40 155 158 0 +.06
21258493643405 0 .008 0 0 -1 16 40 74 0 ?57 27 159 156 0 0 12 30 158 91 0 159 15
6 160 0 +.1371258493643404 -308148791101958e-47 .008 0 0 -1 16 159 75 0 ?161 40
 104 158 0 0 12 30 160 92 0 104 158 106 0 +.1371258493643404 .1 .008 0 0 -1 16 1
04 76 0 ?70 159 94 160 0 0 12 30 106 93 0 94 160 36 0 +.0621258493643405 .1 .008
 0 0 -1 30 36 152 0 27 106 24 0 +0 .096 0 -1 0 0 17 70 0 91 93 92 68 82 104 0 99
 +17 82 0 162 118 135 80 70 104 0 116 -17 99 0 163 164 103 68 93 100 0 135 -15 1
63 286 0 99 165 0 17 164 0 163 166 99 71 135 133 0 0 -17 103 0 163 99 166 77 102
 128 0 93 -17 135 0 162 82 73 68 164 133 0 0 +15 162 166 0 46 167 0 17 73 0 162
 135 46 71 138 136 0 132 -17 46 0 162 73 161 28 44 154 0 138 -17 138 0 168 39 13
2 28 73 136 0 0 +17 132 0 168 138 76 71 166 130 0 164 +15 168 279 0 138 169 0 17
 76 0 168 132 39 74 143 141 0 166 -17 166 0 163 103 164 74 132 130 0 102 -17 102
 0 101 143 79 74 103 128 0 0 +17 143 0 101 49 102 42 76 141 0 0 +17 49 0 101 51
 143 55 45 50 0 0 -17 51 0 101 109 49 47 57 40 0 170 -17 109 0 101 88 51 65 171
 146 0 0 +17 57 0 172 157 170 55 51 40 0 48 +17 170 0 172 57 173 47 152 105 0 17
1 -15 172 78 0 157 174 0 17 173 0 172 170 157 52 161 159 0 0 -17 152 0 175 176 1
71 52 170 105 0 173 +17 171 0 175 152 145 47 109 146 0 0 -15 175 3 0 176 177 0 1
7 145 0 175 171 176 65 64 139 0 109 +17 176 0 175 145 152 59 62 148 0 0 -17 64 0
 178 85 67 59 145 139 0 179 -15 178 255 0 64 180 0 17 85 0 178 113 64 83 179 140
 0 112 +17 67 0 178 64 113 65 88 110 0 145 -17 179 0 162 62 118 59 85 140 0 176
 -17 62 0 162 161 179 52 176 148 0 152 +17 118 0 162 179 82 83 116 119 0 0 -16 1
40 182 0 ?85 136 141 134 136 136 12 17 161 0 162 46 62 58 173 159 0 157 +17 157
 0 172 173 57 58 48 149 0 0 +17 48 0 43 45 44 55 157 149 0 49 -15 43 151 0 41 18
1 0 17 44 0 43 48 41 58 46 154 0 161 +14 255 181 43 182 ?165 177 183 22 184 +0 0
 165 177 38 81 1 182 496 185 181 186 0 0 187 188 14 165 284 187 ?169 181 163 22
 189 -0 0 169 181 38 14 177 1 190 ?181 96 191 22 192 -0 0 181 96 38 15 183 373 0
 193 181 43 50 184 65 0 181 192 194 0 +0 0 0 0 0 -1 -1 0 0 13 38 29 0 0 0 0 0 0
 26 32 14 32 85 195 ?174 0 101 22 23 +0 0 174 0 38 81 1 195 499 185 32 196 0 190
 197 198 14 174 79 197 ?167 32 172 22 194 -0 0 167 32 38 81 1 197 500 185 174 19
9 0 195 200 201 14 167 81 200 ?96 174 162 22 202 +0 0 96 174 38 50 194 86 0 174
 184 202 0 +.0621258493643405 0 .008 4108650548026105e-47 1 0 -1 410865054802610
5e-47 0 50 202 87 0 167 194 34 0 +.1371258493643404 .1 .008 1 0 0 0 0 -1 50 34 8
8 0 96 202 23 0 +.0621258493643405 .1 .008 0 1 0 0 0 1 14 96 83 203 ?177 167 91
 22 34 +0 0 177 167 38 81 1 203 502 185 96 204 0 200 205 206 80 255 1 185 207 20
8 9000 1 1 1 1 1 1 1 1 0 FFFFTFTFFFFFFF1 81 1 204 461 209 96 0 203 210 211 212 8
1 1 200 501 185 167 210 0 197 203 213 81 1 205 503 185 214 215 0 203 216 217 82
 255 1 206 1776091629 14 214 396 205 ?0 117 218 22 219 -0 0 0 117 38 81 1 215 46
8 209 214 0 205 220 0 221 81 1 216 504 185 117 220 0 205 222 223 82 1 217 500498
958 14 117 287 216 ?214 180 111 22 224 +0 0 214 180 38 81 1 220 467 209 117 0 21
6 225 215 226 81 1 222 505 185 180 225 0 216 227 228 82 1 223 1826947565 14 180
 252 222 ?117 169 178 22 229 +169 169 117 169 38 81 1 225 466 209 180 0 222 230
 220 231 81 1 227 506 185 169 230 0 222 0 232 82 1 228 1834484205 14 169 276 227
 ?180 165 168 22 229 +180 180 180 165 38 81 1 230 465 209 169 0 227 233 225 234
 82 1 232 1818100205 80 1 209 0 235 8001 0 0 0 0 3 5 0 0 0 FFFFTFTFFFFFFF2 81 1
 233 464 209 165 0 187 186 230 236 83 255 3 234 .792156862745098 .81960784313725
5 .933333333333333 81 1 187 497 185 165 233 0 182 190 237 81 1 186 463 209 181 0
 182 211 233 238 83 3 236 .792156862745098 .819607843137255 .933333333333333 81
 1 211 462 209 177 0 190 204 186 239 83 3 238 .792156862745098 .819607843137255
 .933333333333333 81 1 190 498 185 177 211 0 187 195 240 83 3 239 .7921568627450
98 .819607843137255 .933333333333333 82 1 240 1769079310 82 1 237 1811415533 79
 255 15 235 SDL/TYSA_COLOUR50 229 294 0 169 189 192 0 +.0621258493643405 .096 -.
006 0 -1 0 0 0 -1 50 189 296 0 165 224 229 0 +0 0 -.006 0 0 1 1 0 0 50 192 2 0 1
77 229 184 0 +0 0 .008 0 0 -1 -1 0 0 50 224 297 0 117 219 189 0 +0 0 .018 0 0 1
 1 0 0 51 255 219 409 0 214 0 224 0 +.0982196206034018 .03862760363385575 -.006
 0 0 1 .0185 1 0 0 83 3 231 .792156862745098 .819607843137255 .933333333333333 8
3 3 226 .792156862745098 .819607843137255 .933333333333333 83 3 221 .79215686274
5098 .819607843137255 .933333333333333 15 218 399 0 121 214 241 17 121 0 218 121
 121 0 193 35 0 0 +15 241 400 0 242 214 0 17 242 0 241 242 242 0 243 122 0 0 +17
 243 0 191 243 243 0 242 122 0 0 -16 122 388 0 ?242 35 0 123 0 0 12 15 191 378 0
 243 177 175 17 193 0 183 193 193 0 121 35 0 0 -81 1 210 460 209 167 0 200 199 2
04 244 82 1 213 1775895021 81 1 199 459 209 174 0 197 196 210 245 83 3 244 .7921
56862745098 .819607843137255 .933333333333333 81 1 196 458 209 32 0 195 0 199 24
6 83 3 245 .792156862745098 .819607843137255 .933333333333333 83 3 246 .79215686
2745098 .819607843137255 .933333333333333 83 3 212 .792156862745098 .81960784313
7255 .933333333333333 79 14 208 SWEntUnchanged82 1 201 1775632872 82 1 198 17762
22701 82 1 188 1774715406 17 113 0 178 67 85 86 112 114 0 0 -16 110 185 0 ?88 14
1 133 137 141 141 12 17 112 0 111 116 107 83 113 114 0 118 +17 39 0 168 76 138 4
2 41 27 0 143 +19 33 95 0 12 0 26 22 S0 74 4 CI16 index_map_offset0 0 1 dCCZ20 3
1 4 0 0 227 30 215 19 0 0 0 0 0 0 0 0 0 0 0 0 0 0 0 0 81 2 30 429 247 12 0 19 0
 0 248 0 80 2 247 249 250 8004 0 0 0 0 3 5 0 0 0 FFTFFFFFFFFFFF2 3 83 1 248 1 79
 16 250 SDL/TYSA_DENSITY80 1 29 251 252 8017 0 0 0 0 0 0 0 0 0 TTTTTTTTTTTTTF3 7
9 13 252 SDL/TYSA_NAME81 1 10 129 29 7 253 0 0 0 0 70 11 0 4 T7 0 0 4 20 1 254 2
54 13 13 29 0 7 0 255 0 0 256 0 51 14 28 0 255 257 0 0 +.0982196206034018 .03862
760363385575 .007 0 0 1 .0185 1 0 0 31 15 23 0 258 259 0 0 +.0982196206034018 .0
3862760363385575 .008 0 0 1 1 0 0 .0185 19 16 7 0 7 256 0 260 V0 16 17 4 0 ?261
 0 258 259 0 0 7 17 261 0 262 261 261 0 263 17 0 0 +16 258 18 0 ?264 17 265 15 0
 0 7 31 259 5 0 17 266 15 0 +.0982196206034018 .03862760363385575 .007 0 0 1 1 0
 0 .0185 31 266 71 0 267 268 259 0 +.0982196206034018 .03862760363385575 .008 0
 0 1 1 0 0 .0165 16 267 52 0 ?269 265 0 266 0 0 7 31 268 72 0 265 0 266 0 +.0982
196206034018 .03862760363385575 .007 0 0 1 1 0 0 .0165 16 265 49 0 ?270 258 267
 268 0 0 7 17 270 0 271 270 270 0 272 265 0 0 +15 271 43 0 270 273 274 17 272 0
 275 272 272 0 270 265 0 0 -15 275 58 0 272 276 277 14 276 55 278 ?0 279 275 13
 280 -0 0 0 279 260 15 277 59 0 269 276 0 17 269 0 277 269 269 0 281 267 0 0 +17
 281 0 282 281 281 0 269 267 0 0 -15 282 38 0 281 279 283 14 279 16 284 ?276 273
 282 13 257 +0 0 276 273 260 15 283 17 0 264 279 0 17 264 0 283 264 264 0 285 25
8 0 0 +17 285 0 286 285 285 0 264 258 0 0 -15 286 26 0 285 255 0 14 255 25 287 ?
273 0 262 13 14 +0 0 273 0 260 81 1 287 127 185 255 288 0 284 289 290 14 273 1 2
89 ?279 255 271 13 291 -0 0 279 255 260 15 262 24 0 261 255 286 13 260 8 0 0 0 0
 0 0 16 255 81 1 289 128 185 273 292 0 287 0 293 50 291 2 0 273 280 257 0 +.0982
196206034018 .03862760363385575 .007 0 0 1 1 0 0 51 280 68 0 276 0 291 0 +.09821
96206034018 .03862760363385575 .007 0 0 1 .0165 1 0 0 50 257 22 0 279 291 14 0 +
.0982196206034018 .03862760363385575 .008 0 0 1 1 0 0 81 1 292 112 209 273 0 289
 288 294 295 82 1 293 1012597272 81 1 288 111 209 255 0 287 0 292 296 81 1 294 1
13 209 279 0 284 292 297 298 83 3 295 .792156862745098 .819607843137255 .9333333
33333333 81 1 284 126 185 279 294 0 278 287 299 81 1 297 114 209 276 0 278 294 0
 300 83 3 298 .792156862745098 .819607843137255 .933333333333333 81 1 278 125 18
5 276 297 0 0 284 301 83 3 300 .792156862745098 .819607843137255 .93333333333333
3 82 1 301 1010565656 82 1 299 1014301208 83 3 296 .792156862745098 .81960784313
7255 .933333333333333 82 1 290 1014563352 15 274 3 0 263 273 0 17 263 0 274 263
 263 0 261 17 0 0 -19 256 30 0 7 0 16 13 S0 74 20 254 4 0 0 289 253 297 10 0 0 0
 0 0 0 0 0 0 0 0 0 0 0 0 0 81 2 253 97 247 7 0 10 0 0 302 0 83 1 302 1 74 20 6 1
 0 0 2 0 0 0 0 0 0 0 0 0 0 0 0 0 0 0 0 0 0 0 80 2 5 303 304 9000 0 0 0 0 3 5 0 0
 0 TFFFFFFFFFFFFF9 1 79 18 304 MULTI_BODY_ID_20011 0 
