**ABCDEFGHIJKLMNOPQRSTUVWXYZabcdefghijklmnopqrstuvwxyz**************************
**PARASOLID !"#$%&'()*+,-./:;<=>?@[\]^_`{|}~0123456789**************************
**PART1;
MC=AMD64;
MC_MODEL=Intel64 Family 6 Model 158 Stepping 9, GenuineIntel;
MC_ID=unknown;
OS=Windows_NT;
OS_RELEASE=unknown;
FRU=Parasolid Version 30.0, build 298, 12-15-2017;
APPL=SOLIDWORKS 2018-2018134;
SITE=;
USER=unknown;
FORMAT=text;
GUISE=transmit;
KEY=z_dowelPin_3mm_5mm_mcmaster_91595A143;
FILE=z_dowelPin_3mm_5mm_mcmaster_91595A143.x_t;
DATE=Fri Oct 19 14:38:37 2018;
**PART2;
SCH=SCH_3000298_30000;
USFLD_SIZE=0;
**PART3;
**END_OF_HEADER*****************************************************************
T51 : TRANSMIT FILE created by modeller version 300029823 SCH_3000298_30000_1300
6205 0 12 33 CCCCCCI4 mesh1006 0 I8 polyline1008 0 CCCCCCCDI5 owner1040 0 CCCCCC
I13 boundary_mesh1006 0 I17 boundary_polyline1008 0 CCCA16 index_map_offset0 0 1
 dA9 index_map82 0 A17 node_id_index_map82 0 A20 schema_embedding_map82 0 A5 chi
ld12 0 A14 lowest_node_id0 0 1 dZ1 237 0 2 0 0 0 0 0 0 1e3 1e-8 0 3 0 1 0 1 1 4
 5 6 7 0 0 8 9 10 0 0 0 0 0 0 70 11 CI9 list_type0 0 1 uI10 notransmit0 0 1 lCCC
DCCDI12 finger_index0 0 1 dI12 finger_block1012 0 CZ2 0 4 T1 0 0 2 20 1 11 11 13
 255 4 29 0 1 0 12 0 0 13 0 51 255 5 28 0 12 14 0 0 +-.0225 0 0 1 0 0 .0015 0 0
 -1 31 255 6 117 0 9 15 0 0 +.021525 0 0 -1 0 0 0 0 1 .0015 29 255 7 121 0 10 16
 0 .0225 1084202172485504e-34 0 19 8 CCCCCCCA5 owner12 0 Z8 7 0 1 13 0 17 V0 16
 255 9 86 0 ?18 0 19 6 0 0 1 18 255 10 90 0 20 0 21 7 ?1 17 255 20 0 22 20 20 10
 0 0 0 0 ?18 21 136 0 23 10 0 16 ?1 17 23 0 24 23 23 21 0 0 0 0 ?29 16 161 0 21
 0 7 -.0225 1084202172485504e-34 0 15 255 24 139 0 23 25 26 14 255 25 137 27 ?0
 28 24 4 29 +0 0 0 28 17 15 26 140 0 30 25 0 17 30 0 26 30 30 0 31 32 0 0 +17 31
 0 33 31 31 0 30 32 0 0 -16 32 133 0 ?30 19 0 34 0 0 1 16 19 89 0 ?35 9 32 15 0
 0 1 31 34 158 0 32 0 15 0 +-.02205 0 0 -1 0 0 0 0 1 .0015 31 15 120 0 19 34 6 0
 +.02211 0 0 -1 0 0 0 0 1 .001343249722427792 17 35 0 36 35 35 0 37 19 0 0 +15 3
6 93 0 35 38 39 17 37 0 40 37 37 0 35 19 0 0 -15 40 109 0 37 28 0 14 28 106 41 ?
25 38 22 4 42 +0 0 25 38 17 81 255 1 41 235 43 28 44 0 27 45 46 14 38 91 45 ?28
 12 36 4 14 +0 0 28 12 17 15 22 108 0 20 28 40 53 255 42 116 0 28 29 14 0 +.0199
9176946563805 1084202172485504e-34 0 .00250823053436193 -1 0 0 0 1 0 13 17 8 0 0
 0 0 0 0 8 12 14 12 126 47 ?38 0 48 4 5 +0 0 38 0 17 81 1 47 237 43 12 49 0 45 0
 50 15 48 76 0 18 12 33 17 18 0 48 18 18 0 51 9 0 0 +15 33 123 0 31 12 0 17 51 0
 39 51 51 0 18 9 0 0 -15 39 94 0 51 38 0 80 255 1 43 52 53 9000 1 1 1 1 1 1 1 1
 0 FFFFTFTFFFFFFF1 81 1 49 220 54 12 0 47 0 55 56 81 1 45 236 43 38 55 0 41 47 5
7 82 255 1 50 -1907163031 81 1 55 221 54 38 0 45 49 44 58 82 1 57 -1918893975 80
 1 54 0 59 8001 0 0 0 0 3 5 0 0 0 FFFFTFTFFFFFFF2 81 1 44 222 54 28 0 41 55 60 6
1 83 255 3 58 .776470588235294 .756862745098039 .737254901960784 81 1 60 223 54
 25 0 27 44 0 62 83 3 61 .776470588235294 .756862745098039 .737254901960784 81 1
 27 234 43 25 60 0 0 41 63 83 3 62 .776470588235294 .756862745098039 .7372549019
60784 82 1 63 -1910767511 79 255 15 59 SDL/TYSA_COLOUR83 3 56 .776470588235294 .
756862745098039 .737254901960784 79 14 53 SWEntUnchanged53 29 154 0 25 0 42 0 +-
.019775 1084202172485504e-34 0 .002725 -1 0 0 0 -1 0 52 255 14 112 0 38 42 5 0 +
.021525 0 0 -1 0 0 .0015 .258819045102524 .965925826289067 0 0 1 82 1 46 -192158
0951 19 13 30 0 1 0 8 4 S0 74 4 CI16 index_map_offset0 0 1 dCCZ20 11 2 0 0 47 60
 0 0 0 0 0 0 0 0 0 0 0 0 0 0 0 0 0 0 1 0 
