**ABCDEFGHIJKLMNOPQRSTUVWXYZabcdefghijklmnopqrstuvwxyz**************************
**PARASOLID !"#$%&'()*+,-./:;<=>?@[\]^_`{|}~0123456789**************************
**PART1;
MC=AMD64;
MC_MODEL=Intel64 Family 6 Model 158 Stepping 9, GenuineIntel;
MC_ID=unknown;
OS=Windows_NT;
OS_RELEASE=unknown;
FRU=Parasolid Version 30.0, build 298, 12-15-2017;
APPL=SOLIDWORKS 2018-2018134;
SITE=;
USER=unknown;
FORMAT=text;
GUISE=transmit;
KEY=z_ultraThinBallBearing_mcmaster_6656K110;
FILE=z_ultraThinBallBearing_mcmaster_6656K110.x_t;
DATE=Fri Oct 19 14:38:04 2018;
**PART2;
SCH=SCH_3000298_30000;
USFLD_SIZE=0;
**PART3;
**END_OF_HEADER*****************************************************************
T51 : TRANSMIT FILE created by modeller version 300029823 SCH_3000298_30000_1300
6205 0 10 19 CCCCCCCI4 mesh1006 0 I8 polyline1008 0 CCCCCCCCCCZ1 25 2 3 0 0 0 0
 0 0 0 1e3 1e-8 0 0 0 1 0 1 4 81 255 2 2 25 5 1 0 0 0 0 0 0 70 11 CI9 list_type0
 0 1 uI10 notransmit0 0 1 lCCCDCCDI12 finger_index0 0 1 dI12 finger_block1012 0
 CZ3 0 4 T1 0 0 1 20 1 6 6 11 255 4 23 0 1 7 8 1 9 0 0 0 12 33 CCCCCCI4 mesh1006
 0 I8 polyline1008 0 CCCCCCCDI5 owner1040 0 CCCCCCI13 boundary_mesh1006 0 I17 bo
undary_polyline1008 0 CCCA16 index_map_offset0 0 1 dA9 index_map82 0 A17 node_id
_index_map82 0 A20 schema_embedding_map82 0 A5 child12 0 A14 lowest_node_id0 0 1
 dZ7 91 10 11 0 0 0 0 0 0 1e3 1e-8 4 12 0 1 0 1 1 13 14 0 0 0 0 15 0 0 0 0 0 0 0
 0 100 255 8 24 4 0 0 1 0 0 0 1 0 0 0 1 0 0 0 1 0 ?11 9 21 0 1 12 16 1 17 4 0 0
 12 12 91 18 19 0 0 0 0 0 0 1e3 1e-8 9 20 7 1 0 1 1 21 22 0 0 0 0 23 0 0 0 0 0 0
 0 0 100 16 22 9 0 0 1 0 0 0 1 0 0 0 1 0 0 0 1 0 ?11 17 19 0 1 20 24 1 25 9 0 0
 12 20 91 26 27 0 0 0 0 0 0 1e3 1e-8 17 28 12 1 0 1 1 29 30 0 0 0 0 31 0 0 0 0 0
 0 0 0 100 24 20 17 0 0 1 0 0 0 1 0 0 0 1 0 0 0 1 0 ?11 25 17 0 1 28 32 1 33 17
 0 0 12 28 91 34 35 0 0 0 0 0 0 1e3 1e-8 25 36 20 1 0 1 1 37 38 0 0 0 0 39 0 0 0
 0 0 0 0 0 100 32 18 25 0 0 1 0 0 0 1 0 0 0 1 0 0 0 1 0 ?11 33 15 0 1 36 40 1 41
 25 0 0 12 36 91 42 43 0 0 0 0 0 0 1e3 1e-8 33 44 28 1 0 1 1 45 46 0 0 0 0 47 0
 0 0 0 0 0 0 0 100 40 16 33 0 0 1 0 0 0 1 0 0 0 1 0 0 0 1 0 ?11 41 13 0 1 44 48
 1 49 33 0 0 12 44 91 50 51 0 0 0 0 0 0 1e3 1e-8 41 52 36 1 0 1 1 53 54 0 0 0 0
 55 0 0 0 0 0 0 0 0 100 48 14 41 0 0 1 0 0 0 1 0 0 0 1 0 0 0 1 0 ?11 49 11 0 1 5
2 56 1 57 41 0 0 12 52 91 58 59 0 0 0 0 0 0 1e3 1e-8 49 60 44 1 0 1 1 61 62 0 0
 0 0 63 0 0 0 0 0 0 0 0 100 56 12 49 0 0 1 0 0 0 1 0 0 0 1 0 0 0 1 0 ?11 57 9 0
 1 60 64 1 65 49 0 0 12 60 91 66 67 0 0 0 0 0 0 1e3 1e-8 57 68 52 1 0 1 1 69 70
 0 0 0 0 71 0 0 0 0 0 0 0 0 100 64 10 57 0 0 1 0 0 0 1 0 0 0 1 0 0 0 1 0 ?11 65
 7 0 1 68 72 1 73 57 0 0 12 68 93 74 75 0 0 0 0 0 0 1e3 1e-8 65 76 60 1 0 1 1 77
 78 0 0 0 0 79 0 0 0 0 0 0 0 0 100 72 8 65 0 0 1 0 0 0 1 0 0 0 1 0 0 0 1 0 ?11 7
3 5 0 1 76 80 1 81 65 0 0 12 76 84 82 83 0 0 0 0 0 0 1e3 1e-8 73 84 68 1 0 1 1 8
5 86 0 0 0 0 87 0 0 0 0 0 0 0 0 100 80 6 73 0 0 1 0 0 0 1 0 0 0 1 0 0 0 1 0 ?11
 81 3 0 1 84 88 1 89 73 0 0 12 84 278 90 91 0 0 0 0 0 0 1e3 1e-8 81 92 76 1 0 1
 1 93 94 95 0 0 0 96 97 0 0 0 0 0 0 0 100 88 4 81 0 0 1 0 0 0 1 0 0 0 1 0 0 0 1
 0 ?11 89 1 0 1 92 98 1 0 81 0 0 12 92 279 99 100 0 0 0 0 0 0 1e3 1e-8 89 101 84
 1 0 1 1 102 103 104 0 0 0 105 106 0 0 0 0 0 0 0 100 98 2 89 0 0 1 0 0 0 1 0 0 0
 1 0 0 0 1 0 ?81 1 99 279 107 92 108 0 0 0 0 70 100 0 4 T92 0 0 4 20 1 109 109 1
3 255 102 53 0 92 0 110 0 0 111 0 52 255 103 106 0 110 112 0 0 -0 0 .0028575 0 0
 -1 .03175 .707106781186546 .70710678118655 -1 0 0 31 255 104 114 0 106 113 0 0
 +0 0 .0028575 0 0 1 1 0 0 .03175 19 8 CCCCCCCA5 owner12 0 Z105 57 0 92 111 0 11
4 V0 16 255 106 91 0 ?115 0 116 104 0 0 92 17 255 115 0 117 115 115 0 118 106 0
 0 +16 116 86 0 ?119 106 120 113 0 0 92 17 119 0 121 119 119 0 122 116 0 0 +16 1
20 81 0 ?123 116 124 125 0 0 92 31 113 113 0 116 125 104 0 +0 0 -.0028575 0 0 1
 1 0 0 .03175 31 125 112 0 120 126 113 0 +0 0 -.003175 0 0 1 1 0 0 .0314325 31 1
26 111 0 124 127 125 0 +0 0 -.003175 0 0 1 1 0 0 .0287948076923077 16 124 76 0 ?
128 120 129 126 0 0 92 31 127 110 0 129 130 126 0 +0 0 -.001411111111111112 0 0
 1 1 0 0 .0287948076923077 16 129 71 0 ?131 124 132 127 0 0 92 31 130 109 0 132
 133 127 0 +0 0 .00141111111111111 0 0 1 1 0 0 .0287948076923077 16 132 66 0 ?13
4 129 135 130 0 0 92 31 133 108 0 135 136 130 0 +0 0 .003175 0 0 1 1 0 0 .028794
8076923077 16 135 61 0 ?137 132 138 133 0 0 92 31 136 107 0 138 0 133 0 +0 0 .00
3175 0 0 1 1 0 0 .0314325 16 138 59 0 ?139 135 0 136 0 0 92 17 139 0 140 139 139
 0 141 138 0 0 +15 255 140 63 0 139 142 0 17 141 0 143 141 141 0 139 138 0 0 -15
 143 138 0 141 110 117 14 255 110 97 144 ?145 0 143 102 103 -0 0 145 0 114 15 11
7 96 0 115 110 0 81 1 144 271 146 110 147 0 0 148 149 14 145 94 148 ?150 110 151
 102 112 -0 0 150 110 114 13 114 56 0 0 0 0 0 0 105 110 81 1 148 272 146 145 152
 0 144 153 154 14 150 89 153 ?155 145 156 102 157 -0 0 155 145 114 15 151 131 0
 118 145 121 51 255 112 105 0 145 157 103 0 -0 0 .003175 0 0 1 .03175 1 0 0 52 1
57 104 0 150 158 112 0 -0 0 -.003175 0 0 1 .0314325 .707106781186545 .7071067811
86551 1 0 0 50 255 158 103 0 155 159 157 0 +0 .0314325 -.003175 0 0 1 1 0 0 14 1
55 84 160 ?161 150 162 102 158 -0 0 161 150 114 51 159 102 0 161 163 158 0 +0 0
 .003175 0 0 1 .0287948076923077 1 0 0 14 161 79 164 ?165 155 166 102 159 -0 0 1
65 155 114 54 255 163 101 0 165 167 159 0 +0 0 -583238038093925e-33 0 0 1 .02857
5 .001428128141834222 1 0 0 14 165 74 168 ?169 161 170 102 163 -0 0 169 161 114
 51 167 100 0 169 171 163 0 +0 0 .003175 0 0 1 .0287948076923077 1 0 0 14 169 69
 172 ?142 165 173 102 167 -0 0 142 165 114 50 171 99 0 142 0 167 0 +0 .0314325 .
003175 0 0 -1 -1 0 0 14 142 64 174 ?0 169 175 102 171 -0 0 0 169 114 81 1 174 27
8 146 142 176 0 172 0 177 15 175 137 0 178 142 140 17 178 0 175 178 178 0 137 13
5 0 0 -17 137 0 179 137 137 0 178 135 0 0 +15 179 68 0 137 169 0 80 255 1 146 18
0 181 9000 1 1 1 1 1 1 1 1 0 FFFFTFTFFFFFFF1 81 1 176 252 182 142 0 174 183 0 18
4 81 1 172 277 146 169 183 0 168 174 185 82 255 1 177 687210619 81 1 183 251 182
 169 0 172 186 176 187 81 1 168 276 146 165 186 0 164 172 188 82 1 185 687800443
 81 1 186 250 182 165 0 168 189 183 190 81 1 164 275 146 161 189 0 160 168 191 8
2 1 188 688390267 81 1 189 249 182 161 0 164 192 186 193 81 1 160 274 146 155 19
2 0 153 164 194 82 1 191 688980091 81 1 192 248 182 155 0 160 195 189 196 81 1 1
53 273 146 150 195 0 148 160 197 82 1 194 689569915 81 1 195 247 182 150 0 153 1
52 192 198 82 1 197 690159739 80 1 182 0 199 8001 0 0 0 0 3 5 0 0 0 FFFFTFTFFFFF
FF2 81 1 152 246 182 145 0 148 147 195 200 83 255 3 198 .752941176470588 .752941
176470588 .752941176470588 81 1 147 245 182 110 0 144 0 152 201 83 3 200 .752941
176470588 .752941176470588 .752941176470588 83 3 201 .752941176470588 .752941176
470588 .752941176470588 79 255 15 199 SDL/TYSA_COLOUR83 3 196 .752941176470588 .
752941176470588 .752941176470588 83 3 193 .752941176470588 .752941176470588 .752
941176470588 83 3 190 .752941176470588 .752941176470588 .752941176470588 83 3 18
7 .752941176470588 .752941176470588 .752941176470588 83 3 184 .752941176470588 .
752941176470588 .752941176470588 79 14 181 SWEntUnchanged15 173 136 0 202 169 17
9 17 202 0 173 202 202 0 134 132 0 0 -17 134 0 203 134 134 0 202 132 0 0 +15 203
 73 0 134 165 0 15 170 135 0 204 165 203 17 204 0 170 204 204 0 131 129 0 0 -17
 131 0 205 131 131 0 204 129 0 0 +15 205 78 0 131 161 0 15 166 134 0 206 161 205
 17 206 0 166 206 206 0 128 124 0 0 -17 128 0 207 128 128 0 206 124 0 0 +15 207
 83 0 128 155 0 15 162 133 0 208 155 207 17 208 0 162 208 208 0 123 120 0 0 -17
 123 0 209 123 123 0 208 120 0 0 +15 209 88 0 123 150 0 17 118 0 151 118 118 0 1
15 106 0 0 -15 121 93 0 119 145 0 15 156 132 0 122 150 209 17 122 0 156 122 122
 0 119 116 0 0 -82 1 154 690749563 82 1 149 691077243 19 111 52 0 92 0 105 102 S
0 74 4 CI16 index_map_offset0 0 1 dCCZ20 109 4 0 0 174 108 176 99 0 0 0 0 0 0 0
 0 0 0 0 0 0 0 0 0 81 2 108 187 210 92 0 99 0 0 211 0 80 2 210 212 213 8004 0 0
 0 0 3 5 0 0 0 FFTFFFFFFFFFFF2 3 83 1 211 1 79 16 213 SDL/TYSA_DENSITY80 1 107 2
14 215 8017 0 0 0 0 0 0 0 0 0 TTTTTTTTTTTTTF3 79 13 215 SDL/TYSA_NAME81 1 90 278
 107 84 216 0 0 0 0 70 91 0 4 T84 0 0 4 20 1 217 217 13 93 53 0 84 0 218 0 0 219
 0 50 94 106 0 218 220 0 0 +0 .0283551923076923 .003175 0 0 -1 -1 0 0 31 95 114
 0 97 221 0 0 +0 0 .003175 0 0 1 1 0 0 .0283551923076923 19 96 57 0 84 219 0 222
 V0 16 97 91 0 ?223 0 224 95 0 0 84 17 223 0 225 223 223 0 226 97 0 0 +16 224 86
 0 ?227 97 228 221 0 0 84 17 227 0 229 227 227 0 230 224 0 0 +16 228 81 0 ?231 2
24 232 233 0 0 84 31 221 113 0 224 233 95 0 +0 0 .00141111111111111 0 0 1 1 0 0
 .0283551923076923 31 233 112 0 228 234 221 0 +0 0 -.00141111111111112 0 0 1 1 0
 0 .0283551923076923 31 234 111 0 232 235 233 0 +0 0 -.003175 0 0 1 1 0 0 .02835
51923076923 16 232 76 0 ?236 228 237 234 0 0 84 31 235 110 0 237 238 234 0 +0 0
 -.003175 0 0 1 1 0 0 .0257175 16 237 71 0 ?239 232 240 235 0 0 84 31 238 109 0
 240 241 235 0 +0 0 -.0028575 0 0 1 1 0 0 .0254 16 240 66 0 ?242 237 243 238 0 0
 84 31 241 108 0 243 244 238 0 +0 0 .0028575 0 0 1 1 0 0 .0254 16 243 61 0 ?245
 240 246 241 0 0 84 31 244 107 0 246 0 241 0 +0 0 .003175 0 0 1 1 0 0 .0257175 1
6 246 59 0 ?247 243 0 244 0 0 84 17 247 0 248 247 247 0 249 246 0 0 +15 248 63 0
 247 250 0 17 249 0 251 249 249 0 247 246 0 0 -15 251 138 0 249 218 225 14 218 9
7 252 ?253 0 251 93 94 -0 0 253 0 222 15 225 96 0 223 218 0 81 1 252 270 146 218
 254 0 0 255 256 14 253 94 255 ?257 218 258 93 220 -0 0 257 218 222 13 222 56 0
 0 0 0 0 0 96 218 81 1 255 271 146 253 259 0 252 260 261 14 257 89 260 ?262 253
 263 93 264 -0 0 262 253 222 15 258 131 0 226 253 229 51 220 105 0 253 264 94 0
 -0 0 .003175 0 0 1 .0283551923076923 1 0 0 54 264 104 0 257 265 220 0 +0 0 -802
309607639273e-32 0 0 1 .028575 .001428128141834214 1 0 0 51 265 103 0 262 266 26
4 0 -0 0 .003175 0 0 1 .0283551923076923 1 0 0 14 262 84 267 ?268 257 269 93 265
 -0 0 268 257 222 50 266 102 0 268 270 265 0 +0 .0257175 -.003175 0 0 1 1 0 0 14
 268 79 271 ?272 262 273 93 266 -0 0 272 262 222 52 270 101 0 272 274 266 0 +0 0
 -.0028575 0 0 -1 .0254 .707106781186545 .707106781186551 -1 0 0 14 272 74 275 ?
276 268 277 93 270 -0 0 276 268 222 51 274 100 0 276 278 270 0 +0 0 .003175 0 0
 1 .0254 1 0 0 14 276 69 279 ?250 272 280 93 274 -0 0 250 272 222 52 278 99 0 25
0 0 274 0 +0 0 .003175 0 0 1 .0257175 .707106781186545 .70710678118655 1 0 0 14
 250 64 281 ?0 276 282 93 278 -0 0 0 276 222 81 1 281 277 146 250 283 0 279 0 28
4 15 282 137 0 285 250 248 17 285 0 282 285 285 0 245 243 0 0 -17 245 0 286 245
 245 0 285 243 0 0 +15 286 68 0 245 276 0 81 1 283 251 182 250 0 281 287 0 288 8
1 1 279 276 146 276 287 0 275 281 289 82 1 284 734789757 81 1 287 250 182 276 0
 279 290 283 291 81 1 275 275 146 272 290 0 271 279 292 82 1 289 735379581 81 1
 290 249 182 272 0 275 293 287 294 81 1 271 274 146 268 293 0 267 275 295 82 1 2
92 735969405 81 1 293 248 182 268 0 271 296 290 297 81 1 267 273 146 262 296 0 2
60 271 298 82 1 295 736559229 81 1 296 247 182 262 0 267 299 293 300 81 1 260 27
2 146 257 299 0 255 267 301 82 1 298 737149053 81 1 299 246 182 257 0 260 259 29
6 302 82 1 301 737738877 81 1 259 245 182 253 0 255 254 299 303 83 3 302 .752941
176470588 .752941176470588 .752941176470588 81 1 254 244 182 218 0 252 0 259 304
 83 3 303 .752941176470588 .752941176470588 .752941176470588 83 3 304 .752941176
470588 .752941176470588 .752941176470588 83 3 300 .752941176470588 .752941176470
588 .752941176470588 83 3 297 .752941176470588 .752941176470588 .752941176470588
 83 3 294 .752941176470588 .752941176470588 .752941176470588 83 3 291 .752941176
470588 .752941176470588 .752941176470588 83 3 288 .752941176470588 .752941176470
588 .752941176470588 15 280 136 0 305 276 286 17 305 0 280 305 305 0 242 240 0 0
 -17 242 0 306 242 242 0 305 240 0 0 +15 306 73 0 242 272 0 15 277 135 0 307 272
 306 17 307 0 277 307 307 0 239 237 0 0 -17 239 0 308 239 239 0 307 237 0 0 +15
 308 78 0 239 268 0 15 273 134 0 309 268 308 17 309 0 273 309 309 0 236 232 0 0
 -17 236 0 310 236 236 0 309 232 0 0 +15 310 83 0 236 262 0 15 269 133 0 311 262
 310 17 311 0 269 311 311 0 231 228 0 0 -17 231 0 312 231 231 0 311 228 0 0 +15
 312 88 0 231 257 0 17 226 0 258 226 226 0 223 97 0 0 -15 229 93 0 227 253 0 15
 263 132 0 230 257 312 17 230 0 263 230 230 0 227 224 0 0 -82 1 261 738328701 82
 1 256 738656381 19 219 52 0 84 0 96 93 S0 74 20 217 4 0 0 281 216 283 90 0 0 0
 0 0 0 0 0 0 0 0 0 0 0 0 0 81 2 216 187 210 84 0 90 0 0 313 0 83 1 313 1 81 1 82
 84 107 76 314 0 0 0 0 70 83 0 4 T76 0 0 4 20 1 315 315 13 85 17 0 76 0 316 0 0
 317 0 53 255 86 34 0 316 0 0 0 -0 .028575 -583238038093925e-33 .001428128141834
222 0 0 1 0 1 0 19 87 21 0 76 317 0 318 V0 19 317 16 0 76 0 87 85 S0 13 318 20 0
 0 0 0 0 0 87 316 14 316 31 319 ?0 0 0 85 86 -0 0 0 0 318 81 1 319 83 146 316 32
0 0 0 0 321 81 1 320 78 182 316 0 319 0 0 322 82 1 321 756482175 83 3 322 .75294
1176470588 .752941176470588 .752941176470588 74 20 315 4 0 0 314 320 319 82 0 0
 0 0 0 0 0 0 0 0 0 0 0 0 0 0 81 2 314 56 210 76 0 82 0 0 323 0 83 1 323 1 81 1 7
4 93 107 68 324 0 0 0 0 70 75 0 4 T68 0 0 4 20 1 325 325 13 77 17 0 68 0 326 0 0
 327 0 53 78 34 0 326 0 0 0 -.01679596358425745 .0231176606142641 -5832380380939
25e-33 .001428128141834222 0 0 1 .587785252292474 .809016994374947 0 19 79 21 0
 68 327 0 328 V0 19 327 16 0 68 0 79 77 S0 13 328 20 0 0 0 0 0 0 79 326 14 326 3
1 329 ?0 0 0 77 78 -0 0 0 0 328 81 1 329 92 146 326 330 0 0 0 331 81 1 330 87 18
2 326 0 329 0 0 332 82 1 331 758972545 83 3 332 .752941176470588 .75294117647058
8 .752941176470588 74 20 325 4 0 0 324 330 329 74 0 0 0 0 0 0 0 0 0 0 0 0 0 0 0
 0 81 2 324 65 210 68 0 74 0 0 333 0 83 1 333 1 81 1 66 91 107 60 334 0 0 0 0 70
 67 0 4 T60 0 0 4 20 1 335 335 13 69 17 0 60 0 336 0 0 337 0 53 70 34 0 336 0 0
 0 -.02717643995313405 .00883016061426405 -583238038093925e-33 .0014281281418342
22 0 0 1 .951056516295155 .309016994374945 0 19 71 21 0 60 337 0 338 V0 19 337 1
6 0 60 0 71 69 S0 13 338 20 0 0 0 0 0 0 71 336 14 336 31 339 ?0 0 0 69 70 -0 0 0
 0 338 81 1 339 90 146 336 340 0 0 0 341 81 1 340 85 182 336 0 339 0 0 342 82 1
 341 760283265 83 3 342 .752941176470588 .752941176470588 .752941176470588 74 20
 335 4 0 0 334 340 339 66 0 0 0 0 0 0 0 0 0 0 0 0 0 0 0 0 81 2 334 63 210 60 0 6
6 0 0 343 0 83 1 343 1 81 1 58 91 107 52 344 0 0 0 0 70 59 0 4 T52 0 0 4 20 1 34
5 345 13 61 17 0 52 0 346 0 0 347 0 53 62 34 0 346 0 0 0 -.027176439953134 -.008
83016061426424 -583238038093925e-33 .001428128141834222 0 0 1 .951056516295152 -
.3090169943749515 0 19 63 21 0 52 347 0 348 V0 19 347 16 0 52 0 63 61 S0 13 348
 20 0 0 0 0 0 0 63 346 14 346 31 349 ?0 0 0 61 62 -0 0 0 0 348 81 1 349 90 146 3
46 350 0 0 0 351 81 1 350 85 182 346 0 349 0 0 352 82 1 351 761593985 83 3 352 .
752941176470588 .752941176470588 .752941176470588 74 20 345 4 0 0 344 350 349 58
 0 0 0 0 0 0 0 0 0 0 0 0 0 0 0 0 81 2 344 63 210 52 0 58 0 0 353 0 83 1 353 1 81
 1 50 91 107 44 354 0 0 0 0 70 51 0 4 T44 0 0 4 20 1 355 355 13 53 17 0 44 0 356
 0 0 357 0 53 54 34 0 356 0 0 0 -.0167959635842573 -.0231176606142642 -583238038
093925e-33 .001428128141834222 0 0 1 .587785252292469 -.809016994374951 0 19 55
 21 0 44 357 0 358 V0 19 357 16 0 44 0 55 53 S0 13 358 20 0 0 0 0 0 0 55 356 14
 356 31 359 ?0 0 0 53 54 -0 0 0 0 358 81 1 359 90 146 356 360 0 0 0 361 81 1 360
 85 182 356 0 359 0 0 362 82 1 361 762904705 83 3 362 .752941176470588 .75294117
6470588 .752941176470588 74 20 355 4 0 0 354 360 359 50 0 0 0 0 0 0 0 0 0 0 0 0
 0 0 0 0 81 2 354 63 210 44 0 50 0 0 363 0 83 1 363 1 81 1 42 91 107 36 364 0 0
 0 0 70 43 0 4 T36 0 0 4 20 1 365 365 13 45 17 0 36 0 366 0 0 367 0 53 46 34 0 3
66 0 0 0 --199538158514885e-30 -.028575 -583238038093925e-33 .001428128141834222
 0 0 1 -698296267768627e-29 -1 0 19 47 21 0 36 367 0 368 V0 19 367 16 0 36 0 47
 45 S0 13 368 20 0 0 0 0 0 0 47 366 14 366 31 369 ?0 0 0 45 46 -0 0 0 0 368 81 1
 369 90 146 366 370 0 0 0 371 81 1 370 85 182 366 0 369 0 0 372 82 1 371 7642154
25 83 3 372 .752941176470588 .752941176470588 .752941176470588 74 20 365 4 0 0 3
64 370 369 42 0 0 0 0 0 0 0 0 0 0 0 0 0 0 0 0 81 2 364 63 210 36 0 42 0 0 373 0
 83 1 373 1 81 1 34 91 107 28 374 0 0 0 0 70 35 0 4 T28 0 0 4 20 1 375 375 13 37
 17 0 28 0 376 0 0 377 0 53 38 34 0 376 0 0 0 --.0167959635842576 -.023117660614
264 -583238038093925e-33 .001428128141834222 0 0 1 -.58778525229248 -.8090169943
74942 0 19 39 21 0 28 377 0 378 V0 19 377 16 0 28 0 39 37 S0 13 378 20 0 0 0 0 0
 0 39 376 14 376 31 379 ?0 0 0 37 38 -0 0 0 0 378 81 1 379 90 146 376 380 0 0 0
 381 81 1 380 85 182 376 0 379 0 0 382 82 1 381 765526145 83 3 382 .752941176470
588 .752941176470588 .752941176470588 74 20 375 4 0 0 374 380 379 34 0 0 0 0 0 0
 0 0 0 0 0 0 0 0 0 0 81 2 374 63 210 28 0 34 0 0 383 0 83 1 383 1 81 1 26 91 107
 20 384 0 0 0 0 70 27 0 4 T20 0 0 4 20 1 385 385 13 29 17 0 20 0 386 0 0 387 0 5
3 30 34 0 386 0 0 0 --.0271764399531341 -.00883016061426386 -583238038093925e-33
 .001428128141834222 0 0 1 -.951056516295157 -.3090169943749385 0 19 31 21 0 20
 387 0 388 V0 19 387 16 0 20 0 31 29 S0 13 388 20 0 0 0 0 0 0 31 386 14 386 31 3
89 ?0 0 0 29 30 -0 0 0 0 388 81 1 389 90 146 386 390 0 0 0 391 81 1 390 85 182 3
86 0 389 0 0 392 82 1 391 766836865 83 3 392 .752941176470588 .752941176470588 .
752941176470588 74 20 385 4 0 0 384 390 389 26 0 0 0 0 0 0 0 0 0 0 0 0 0 0 0 0 8
1 2 384 63 210 20 0 26 0 0 393 0 83 1 393 1 81 1 18 91 107 12 394 0 0 0 0 70 19
 0 4 T12 0 0 4 20 1 395 395 13 21 17 0 12 0 396 0 0 397 0 53 22 34 0 396 0 0 0 -
-.0271764399531339 .00883016061426443 -583238038093925e-33 .001428128141834222 0
 0 1 -.95105651629515 .309016994374958 0 19 23 21 0 12 397 0 398 V0 19 397 16 0
 12 0 23 21 S0 13 398 20 0 0 0 0 0 0 23 396 14 396 31 399 ?0 0 0 21 22 -0 0 0 0
 398 81 1 399 90 146 396 400 0 0 0 401 81 1 400 85 182 396 0 399 0 0 402 82 1 40
1 768147585 83 3 402 .752941176470588 .752941176470588 .752941176470588 74 20 39
5 4 0 0 394 400 399 18 0 0 0 0 0 0 0 0 0 0 0 0 0 0 0 0 81 2 394 63 210 12 0 18 0
 0 403 0 83 1 403 1 81 1 10 91 107 7 404 0 0 0 0 70 11 0 4 T7 0 0 4 20 1 405 405
 13 13 17 0 7 0 406 0 0 407 0 53 14 34 0 406 0 0 0 --.0167959635842571 .02311766
061426435 -583238038093925e-33 .001428128141834222 0 0 1 -.587785252292463 .8090
16994374955 0 19 15 21 0 7 407 0 408 V0 19 407 16 0 7 0 15 13 S0 13 408 20 0 0 0
 0 0 0 15 406 14 406 31 409 ?0 0 0 13 14 -0 0 0 0 408 81 1 409 90 146 406 410 0
 0 0 411 81 1 410 85 182 406 0 409 0 0 412 82 1 411 769458305 83 3 412 .75294117
6470588 .752941176470588 .752941176470588 74 20 405 4 0 0 404 410 409 10 0 0 0 0
 0 0 0 0 0 0 0 0 0 0 0 0 81 2 404 63 210 7 0 10 0 0 413 0 83 1 413 1 74 20 6 1 0
 0 2 0 0 0 0 0 0 0 0 0 0 0 0 0 0 0 0 0 0 0 80 2 5 414 415 9000 0 0 0 0 3 5 0 0 0
 TFFFFFFFFFFFFF9 1 79 18 415 MULTI_BODY_ID_20011 0 
